<svg width="443" height="411" fill="none" xmlns="http://www.w3.org/2000/svg"><g clip-path="url(#clip0)" stroke-miterlimit="10"><path d="M377.959 0H65.041C29.074 0 0 26.217 0 58.65v700.376c0 32.343 29.074 58.65 65.041 58.65H377.96c35.867 0 65.041-26.217 65.041-58.65V58.65C443 26.217 413.826 0 377.959 0zm46.458 755.692c0 25.226-21.781 45.677-48.756 45.677H67.339c-26.875 0-48.756-20.451-48.756-45.677V66.308c0-25.226 21.78-45.677 48.756-45.677h35.268c3.997 0 7.194 3.063 7.194 6.757 0 13.424 11.589 24.325 25.976 24.325h171.346c14.387.09 25.976-10.811 25.976-24.325 0-3.694 3.197-6.757 7.194-6.757h35.368c26.876 0 48.756 20.451 48.756 45.677v689.384z" fill="#020A26" stroke="#020A26"/><path d="M242.581 33.154h-46.358c-1.998 0-3.597-1.442-3.597-3.243 0-1.802 1.599-3.244 3.597-3.244h46.358c1.998 0 3.597 1.442 3.597 3.244 0 1.801-1.599 3.243-3.597 3.243zm26.676 1.712c3.035 0 5.495-2.219 5.495-4.955 0-2.737-2.46-4.955-5.495-4.955s-5.495 2.218-5.495 4.955c0 2.736 2.46 4.955 5.495 4.955z" stroke="#000F42" stroke-width="4"/></g><defs><clipPath id="clip0"><path fill="#fff" d="M0 0h443v411H0z"/></clipPath></defs></svg>