<svg width="130" height="120" fill="none" xmlns="http://www.w3.org/2000/svg"><path d="M129.654 84.778c-4.575-13.53-2.398-26.641-2.232-27.591a47.063 47.063 0 001.146-10.501c-.072-20.448-13.155-38.324-32.553-44.483-1-.317-2.073.236-2.392 1.237a1.905 1.905 0 001.239 2.392c17.816 5.656 29.831 22.08 29.897 40.867a43.267 43.267 0 01-1.078 9.775c-.108.6-2.595 14.854 2.366 29.524.303.9.13 1.837-.478 2.573a2.73 2.73 0 01-2.492.972c-4.021-.547-7.497-1.598-10.334-3.123-4.066-2.186-8.894-2.375-12.917-.506-5.944 2.762-12.307 4.103-18.926 3.983-11.216-.201-21.779-4.733-29.744-12.76C43.192 69.11 38.742 58.513 38.63 47.3c-.115-11.442 4.214-22.257 12.188-30.455 7.958-8.18 18.62-12.807 30.02-13.03 2.234-.044 4.48.082 6.672.375a1.904 1.904 0 10.502-3.775 48.117 48.117 0 00-7.25-.405C68.353.25 56.749 5.287 48.086 14.19a46.936 46.936 0 00-8.628 12.294 46.827 46.827 0 00-27.037 15.79c-7.046 8.358-10.95 19.037-10.989 30.07a47.098 47.098 0 001.146 10.503c.167.95 2.345 14.054-2.232 27.591a6.453 6.453 0 001.148 6.215 6.516 6.516 0 005.943 2.322c4.475-.61 8.385-1.801 11.624-3.542 3.015-1.622 6.57-1.774 9.508-.408 6.208 2.885 14.032 4.338 20.6 4.338 7.394 0 14.739-2.057 21.246-5.562a47.59 47.59 0 0016.015-14.1 1.905 1.905 0 00-3.096-2.218 43.76 43.76 0 01-14.726 12.966 42.91 42.91 0 01-19.507 5.107c-6.612.119-12.983-1.221-18.926-3.983-4.022-1.87-8.851-1.68-12.918.507-2.835 1.524-6.312 2.575-10.334 3.123a2.735 2.735 0 01-2.492-.973 2.639 2.639 0 01-.477-2.573c4.948-14.633 2.489-28.84 2.366-29.52a2.684 2.684 0 00-.017-.087 43.335 43.335 0 01-1.062-9.692c.036-10.142 3.62-19.955 10.092-27.631a43.025 43.025 0 0122.31-13.947 46.859 46.859 0 00-2.822 16.558c.124 12.21 4.965 23.744 13.631 32.478 8.668 8.735 20.165 13.886 32.38 13.886 7.567 0 14.39-1.452 20.6-4.337 2.938-1.366 6.493-1.214 9.507.406 3.24 1.742 7.15 2.934 11.624 3.544a6.524 6.524 0 005.943-2.322 6.453 6.453 0 001.148-6.216z" fill="#F7F9FC"/></svg>