<svg width="165" height="161" fill="none" xmlns="http://www.w3.org/2000/svg"><path opacity=".2" d="M160.5 160.1a3.8 3.8 0 100-7.6 3.8 3.8 0 000 7.6zm-15.7 0a3.8 3.8 0 100-7.6 3.8 3.8 0 000 7.6zm-15.6 0a3.8 3.8 0 100-7.6 3.8 3.8 0 000 7.6zm-15.7 0a3.8 3.8 0 100-7.6 3.8 3.8 0 000 7.6zm-15.7 0a3.8 3.8 0 100-7.6 3.8 3.8 0 000 7.6zm-15.7 0a3.8 3.8 0 100-7.6 3.8 3.8 0 000 7.6zm-15.6 0a3.8 3.8 0 100-7.6 3.8 3.8 0 000 7.6zm-15.7 0a3.8 3.8 0 100-7.6 3.8 3.8 0 000 7.6zm-15.7 0a3.8 3.8 0 100-7.6 3.8 3.8 0 000 7.6zm-15.7 0a3.8 3.8 0 100-7.6 3.8 3.8 0 000 7.6zm-15.6 0a3.8 3.8 0 100-7.6 3.8 3.8 0 000 7.6zm156.7-16.9a3.8 3.8 0 100-7.6 3.8 3.8 0 000 7.6zm-15.7 0a3.8 3.8 0 100-7.6 3.8 3.8 0 000 7.6zm-15.6 0a3.8 3.8 0 100-7.6 3.8 3.8 0 000 7.6zm-15.7 0a3.8 3.8 0 100-7.6 3.8 3.8 0 000 7.6zm-15.7 0a3.8 3.8 0 100-7.6 3.8 3.8 0 000 7.6zm-15.7 0a3.8 3.8 0 100-7.6 3.8 3.8 0 000 7.6zm-15.6 0a3.8 3.8 0 100-7.6 3.8 3.8 0 000 7.6zm-15.7 0a3.8 3.8 0 100-7.6 3.8 3.8 0 000 7.6zm-15.7 0a3.8 3.8 0 100-7.6 3.8 3.8 0 000 7.6zm-15.7 0a3.8 3.8 0 100-7.6 3.8 3.8 0 000 7.6zm-15.6 0a3.8 3.8 0 100-7.6 3.8 3.8 0 000 7.6zm156.7-17a3.8 3.8 0 100-7.6 3.8 3.8 0 000 7.6zm-15.7 0a3.8 3.8 0 100-7.6 3.8 3.8 0 000 7.6zm-15.6 0a3.8 3.8 0 100-7.6 3.8 3.8 0 000 7.6zm-15.7 0a3.8 3.8 0 100-7.6 3.8 3.8 0 000 7.6zm-15.7 0a3.8 3.8 0 100-7.6 3.8 3.8 0 000 7.6zm-15.7 0a3.8 3.8 0 100-7.6 3.8 3.8 0 000 7.6zm-15.6 0a3.8 3.8 0 100-7.6 3.8 3.8 0 000 7.6zm-15.7 0a3.8 3.8 0 100-7.6 3.8 3.8 0 000 7.6zm-15.7 0a3.8 3.8 0 100-7.6 3.8 3.8 0 000 7.6zm-15.7 0a3.8 3.8 0 100-7.6 3.8 3.8 0 000 7.6zm-15.6 0a3.8 3.8 0 100-7.6 3.8 3.8 0 000 7.6zm156.7-16.9a3.8 3.8 0 100-7.6 3.8 3.8 0 000 7.6zm-15.7 0a3.8 3.8 0 100-7.6 3.8 3.8 0 000 7.6zm-15.6 0a3.8 3.8 0 100-7.6 3.8 3.8 0 000 7.6zm-15.7 0a3.8 3.8 0 100-7.6 3.8 3.8 0 000 7.6zm-15.7 0a3.8 3.8 0 100-7.6 3.8 3.8 0 000 7.6zm-15.7 0a3.8 3.8 0 100-7.6 3.8 3.8 0 000 7.6zm-15.6 0a3.8 3.8 0 100-7.6 3.8 3.8 0 000 7.6zm-15.7 0a3.8 3.8 0 100-7.6 3.8 3.8 0 000 7.6zm-15.7 0a3.8 3.8 0 100-7.6 3.8 3.8 0 000 7.6zm-15.7 0a3.8 3.8 0 100-7.6 3.8 3.8 0 000 7.6zm-15.6 0a3.8 3.8 0 100-7.6 3.8 3.8 0 000 7.6zm156.7-16.9a3.8 3.8 0 100-7.6 3.8 3.8 0 000 7.6zm-15.7 0a3.8 3.8 0 100-7.6 3.8 3.8 0 000 7.6zm-15.6 0a3.8 3.8 0 100-7.6 3.8 3.8 0 000 7.6zm-15.7 0a3.8 3.8 0 100-7.6 3.8 3.8 0 000 7.6zm-15.7 0a3.8 3.8 0 100-7.6 3.8 3.8 0 000 7.6zm-15.7 0a3.8 3.8 0 100-7.6 3.8 3.8 0 000 7.6zm-15.6 0a3.8 3.8 0 100-7.6 3.8 3.8 0 000 7.6zm-15.7 0a3.8 3.8 0 100-7.6 3.8 3.8 0 000 7.6zm-15.7 0a3.8 3.8 0 100-7.6 3.8 3.8 0 000 7.6zm-15.7 0a3.8 3.8 0 100-7.6 3.8 3.8 0 000 7.6zm-15.6 0a3.8 3.8 0 100-7.6 3.8 3.8 0 000 7.6zm156.7-16.9a3.8 3.8 0 100-7.6 3.8 3.8 0 000 7.6zm-15.7 0a3.8 3.8 0 100-7.6 3.8 3.8 0 000 7.6zm-15.6 0a3.8 3.8 0 100-7.6 3.8 3.8 0 000 7.6zm-15.7 0a3.8 3.8 0 100-7.6 3.8 3.8 0 000 7.6zm-15.7 0a3.8 3.8 0 100-7.6 3.8 3.8 0 000 7.6zm-15.7 0a3.8 3.8 0 100-7.6 3.8 3.8 0 000 7.6zm-15.6 0a3.8 3.8 0 100-7.6 3.8 3.8 0 000 7.6zm-15.7 0a3.8 3.8 0 100-7.6 3.8 3.8 0 000 7.6zm-15.7 0a3.8 3.8 0 100-7.6 3.8 3.8 0 000 7.6zm-15.7 0a3.8 3.8 0 100-7.6 3.8 3.8 0 000 7.6zm-15.6 0a3.8 3.8 0 100-7.6 3.8 3.8 0 000 7.6zm156.7-17a3.8 3.8 0 100-7.6 3.8 3.8 0 000 7.6zm-15.7 0a3.8 3.8 0 100-7.6 3.8 3.8 0 000 7.6zm-15.6 0a3.8 3.8 0 100-7.6 3.8 3.8 0 000 7.6zm-15.7 0a3.8 3.8 0 100-7.6 3.8 3.8 0 000 7.6zm-15.7 0a3.8 3.8 0 100-7.6 3.8 3.8 0 000 7.6zm-15.7 0a3.8 3.8 0 100-7.6 3.8 3.8 0 000 7.6zm-15.6 0a3.8 3.8 0 100-7.6 3.8 3.8 0 000 7.6zm-15.7 0a3.8 3.8 0 100-7.6 3.8 3.8 0 000 7.6zm-15.7 0a3.8 3.8 0 100-7.6 3.8 3.8 0 000 7.6zm-15.7 0a3.8 3.8 0 100-7.6 3.8 3.8 0 000 7.6zm-15.6 0a3.8 3.8 0 100-7.6 3.8 3.8 0 000 7.6zm156.7-16.9a3.8 3.8 0 100-7.6 3.8 3.8 0 000 7.6zm-15.7 0a3.8 3.8 0 100-7.6 3.8 3.8 0 000 7.6zm-15.6 0a3.8 3.8 0 100-7.6 3.8 3.8 0 000 7.6zm-15.7 0a3.8 3.8 0 100-7.6 3.8 3.8 0 000 7.6zm-15.7 0a3.8 3.8 0 100-7.6 3.8 3.8 0 000 7.6zm-15.7 0a3.8 3.8 0 100-7.6 3.8 3.8 0 000 7.6zm-15.6 0a3.8 3.8 0 100-7.6 3.8 3.8 0 000 7.6zm-15.7 0a3.8 3.8 0 100-7.6 3.8 3.8 0 000 7.6zm-15.7 0a3.8 3.8 0 100-7.6 3.8 3.8 0 000 7.6zm-15.7 0a3.8 3.8 0 100-7.6 3.8 3.8 0 000 7.6zm-15.6 0a3.8 3.8 0 100-7.6 3.8 3.8 0 000 7.6zm156.7-16.9a3.8 3.8 0 100-7.6 3.8 3.8 0 000 7.6zm-15.7 0a3.8 3.8 0 100-7.6 3.8 3.8 0 000 7.6zm-15.6 0a3.8 3.8 0 100-7.6 3.8 3.8 0 000 7.6zm-15.7 0a3.8 3.8 0 100-7.6 3.8 3.8 0 000 7.6zm-15.7 0a3.8 3.8 0 100-7.6 3.8 3.8 0 000 7.6zm-15.7 0a3.8 3.8 0 100-7.6 3.8 3.8 0 000 7.6zm-15.6 0a3.8 3.8 0 100-7.6 3.8 3.8 0 000 7.6zm-15.7 0a3.8 3.8 0 100-7.6 3.8 3.8 0 000 7.6zm-15.7 0a3.8 3.8 0 100-7.6 3.8 3.8 0 000 7.6zm-15.7 0a3.8 3.8 0 100-7.6 3.8 3.8 0 000 7.6zm-15.6 0a3.8 3.8 0 100-7.6 3.8 3.8 0 000 7.6zm156.7-17a3.8 3.8 0 100-7.6 3.8 3.8 0 000 7.6zm-15.7 0a3.8 3.8 0 100-7.6 3.8 3.8 0 000 7.6zm-15.6 0a3.8 3.8 0 100-7.6 3.8 3.8 0 000 7.6zm-15.7 0a3.8 3.8 0 100-7.6 3.8 3.8 0 000 7.6zm-15.7 0a3.8 3.8 0 100-7.6 3.8 3.8 0 000 7.6zm-15.7 0a3.8 3.8 0 100-7.6 3.8 3.8 0 000 7.6zm-15.6 0a3.8 3.8 0 100-7.6 3.8 3.8 0 000 7.6zm-15.7 0a3.8 3.8 0 100-7.6 3.8 3.8 0 000 7.6zm-15.7 0a3.8 3.8 0 100-7.6 3.8 3.8 0 000 7.6zm-15.7 0a3.8 3.8 0 100-7.6 3.8 3.8 0 000 7.6zm-15.6 0a3.8 3.8 0 100-7.6 3.8 3.8 0 000 7.6z" fill="#7965EF"/></svg>