<svg xmlns="http://www.w3.org/2000/svg" width="129" height="72"><g fill="none" fill-rule="evenodd"><path d="M0 0h129v72H0z"/><path fill="#7B8BA2" d="M118.428 6.69c1.174.324 2.195 1.41 2.91 2.48a14.895 14.895 0 011.54 2.962c.328.835.429 1.996.491 2.9.064.907-.222 3.034-.295 3.887a44.537 44.537 0 01-.484 3.412c-1.198-.968-2.514-2.08-3.418-2.731-.901-.652-2.056-1.703-2.7-2.125-.644-.423-1.542-1.247-1.776-2.248-.238-.997-.3-1.655-.197-2.208 1.02.878 2.688 1.779 3.425 2.079.734.297 1.738.97 2.12 1.418-.087-1.55.063-3.168.025-4.157-.05-1.296-.697-3.783-1.64-5.67zm6.67 9.326c.925 1.246 1.512 2.404 1.812 3.84.296 1.44.453 3.097.408 4.21-.043 1.11-.595 2.732-1.082 3.781-.485 1.048-1.974 3.702-2.489 4.393-.915-1.511-1.848-3.36-2.596-4.226-.719-.838-1.768-2.07-2.395-3.08-.624-1.006-1.465-3.317-1.461-4.562 1.364 1.44 2.83 2.53 3.516 3.183.685.65 2.276 1.97 2.597 2.829.343-1.942.992-3.742 1.17-4.848.176-1.105.619-4.036.52-5.52zm3.204 10.87c.299 1.335.553 2.71.405 4.49-.146 1.78-.703 3.694-1.38 4.681-.676.988-1.585 2.053-2.386 2.908-.8.854-2.366 2.24-2.952 3.063-.147-1.968-.547-3.34-.953-4.561-.43-1.289-1.097-3.077-1.768-4.77-.67-1.695-1.158-3.72-.525-4.708.86 1.148 1.934 2.393 2.543 3.447.607 1.05 1.055 1.985 1.324 2.662.245.617.596 1.349.697 2.119.69-1.369 1.245-2.576 1.83-3.356.587-.78 1.278-1.83 1.744-2.809a77.766 77.766 0 001.421-3.167zm-9.413 9.149c.284 1.457.568 2.955.944 4.246.378 1.292.96 3.907 1.082 5.187.886-.979 1.875-1.81 2.843-2.702a29.07 29.07 0 002.674-2.818 452.96 452.96 0 002.318-2.863c.15.699.218 1.408.193 2.116a8.283 8.283 0 01-.868 3.414c-.873 1.744-2.431 3.664-3.575 4.674-1.143 1.007-2.583 2.047-3.497 2.64-.916.592-2.376 1.267-2.937 1.496.172-1.764.147-4.17-.048-5.752-.197-1.578-.459-3.628-.406-5.111.058-1.484.395-3.676 1.277-4.527zm-3.425 18.398c.658-.224 1.718-.646 2.34-1.003.62-.36 2.038-1.066 3.322-1.777a23.895 23.895 0 004.729-3.44c.018.819-.2 2.105-.583 3.123-.383 1.016-1.787 2.634-3.132 3.777-1.39 1.18-3.137 2.09-4.811 2.655-1.673.568-4.096.834-6.362.939.383-1.063.894-3.328 1.16-4.654.261-1.324.797-4.235 1.148-5.641.354-1.41.893-3.197 2.365-4.29-.11.687.099 2.207.078 2.812-.02.601.105 2.035.06 3.328a45.76 45.76 0 01-.314 4.171zm4.494 4.228c-.427 1.334-1.104 2.317-2.036 3.201-.928.882-2.15 1.467-3.198 1.822-1.304.444-4.785.968-6.7.89-1.766-.07-3.726-.693-4.636-.998-.88-.295-2.077-.745-2.588-.9 1.274-.781 1.98-1.583 2.97-3.014.992-1.433 2.046-3.5 2.946-4.725.897-1.224 2.675-3.08 4.163-3.764a111.973 111.973 0 00-1.486 4.927c-.339 1.255-1.19 3.797-1.969 5.285 2.035-.318 4.677-.769 6.151-1.07 1.476-.304 3.905-.852 4.557-1.073.654-.22 1.302-.355 1.826-.581zM111.391 5c1.05.19 2.58.582 3.785 1.554 1.211.966 2.41 2.36 2.904 3.758.497 1.394.687 2.641.5 3.269-1.128-.581-2.778-1.535-3.552-2.262-.773-.73-1.623-2.019-2.173-3.075A35.66 35.66 0 01111.39 5zM10.519 6.69c-.943 1.886-1.59 4.373-1.64 5.67-.038.988.112 2.607.025 4.156.382-.448 1.386-1.121 2.12-1.418.737-.3 2.404-1.2 3.425-2.08.103.554.041 1.212-.198 2.21-.233 1-1.131 1.824-1.775 2.247-.644.422-1.799 1.473-2.7 2.125-.904.65-2.22 1.763-3.418 2.73a44.537 44.537 0 01-.485-3.411c-.072-.853-.358-2.98-.294-3.887.062-.904.163-2.065.49-2.9.328-.832.764-1.803 1.54-2.962.716-1.07 1.737-2.156 2.91-2.48zM3.85 16.016c-.099 1.484.344 4.415.519 5.52.179 1.106.828 2.906 1.17 4.848.322-.86 1.913-2.179 2.597-2.829.686-.654 2.153-1.743 3.517-3.183.004 1.245-.837 3.556-1.461 4.563-.627 1.008-1.676 2.241-2.395 3.079-.749.865-1.681 2.715-2.597 4.226-.514-.691-2.003-3.345-2.489-4.393-.486-1.049-1.038-2.671-1.082-3.781-.045-1.113.113-2.77.409-4.21.3-1.436.887-2.594 1.812-3.84zM.646 26.886c.328.793.95 2.18 1.42 3.166.467.98 1.158 2.028 1.744 2.809.586.78 1.142 1.987 1.83 3.356.102-.77.453-1.502.698-2.12.268-.676.717-1.61 1.324-2.661.61-1.054 1.682-2.299 2.543-3.447.633.989.145 3.013-.525 4.708a99.27 99.27 0 00-1.768 4.77c-.407 1.221-.807 2.593-.953 4.561-.587-.823-2.152-2.209-2.952-3.063-.801-.855-1.71-1.92-2.387-2.908-.677-.987-1.233-2.9-1.379-4.68-.149-1.78.106-3.156.405-4.492zm9.412 9.149c.883.85 1.22 3.043 1.277 4.527.053 1.483-.209 3.533-.405 5.111-.195 1.582-.22 3.988-.048 5.752-.561-.23-2.021-.904-2.937-1.495-.914-.594-2.354-1.634-3.497-2.641-1.144-1.01-2.702-2.93-3.575-4.674A8.283 8.283 0 01.005 39.2a8.637 8.637 0 01.193-2.116c.623.777 1.65 2.047 2.318 2.863a29.07 29.07 0 002.674 2.818c.968.891 1.957 1.723 2.843 2.702.123-1.28.704-3.895 1.082-5.187.376-1.29.66-2.789.943-4.246zm3.426 18.398a45.759 45.759 0 01-.314-4.17c-.045-1.294.08-2.728.06-3.33-.021-.604.187-2.124.078-2.81 1.471 1.092 2.01 2.879 2.364 4.289.352 1.406.887 4.317 1.15 5.64.265 1.327.776 3.592 1.16 4.655-2.267-.105-4.69-.371-6.363-.94-1.674-.564-3.422-1.474-4.81-2.654-1.346-1.143-2.75-2.761-3.133-3.777-.383-1.018-.601-2.304-.583-3.123a23.895 23.895 0 004.73 3.44c1.283.71 2.701 1.418 3.32 1.777.623.357 1.683.779 2.341 1.003zM8.99 58.661c.524.226 1.172.36 1.826.581.652.22 3.081.769 4.557 1.073 1.474.301 4.115.752 6.15 1.07-.778-1.488-1.63-4.03-1.968-5.285-.34-1.254-.915-3.176-1.486-4.927 1.487.683 3.266 2.54 4.163 3.764.9 1.225 1.954 3.292 2.945 4.725.99 1.43 1.697 2.233 2.97 3.013-.51.156-1.708.606-2.587.9-.91.306-2.87.928-4.636 1-1.915.077-5.396-.447-6.7-.891-1.048-.355-2.27-.94-3.199-1.822-.932-.884-1.608-1.867-2.035-3.201zM17.557 5a35.66 35.66 0 01-1.464 3.244c-.55 1.056-1.4 2.345-2.173 3.075-.775.727-2.424 1.68-3.552 2.262-.188-.628.003-1.875.5-3.27.494-1.397 1.692-2.791 2.903-3.757C14.977 5.582 16.507 5.19 17.557 5z"/><path stroke="#C0CDDF" stroke-linecap="round" stroke-linejoin="round" stroke-width=".8" d="M31.5 39.5h66"/><path fill="#7B8BA2" d="M38.957 15.39c.336 0 .612-.04.83-.123.217-.081.39-.19.521-.325.13-.135.222-.29.273-.466.051-.175.077-.355.077-.542 0-.205-.03-.39-.091-.553a.987.987 0 00-.294-.417 1.386 1.386 0 00-.529-.262 3.02 3.02 0 00-.801-.091h-1.785v2.779h1.799zm-1.799-6.951v2.744h1.379c.294 0 .555-.024.784-.073.229-.05.42-.128.574-.235a1.03 1.03 0 00.353-.424 1.49 1.49 0 00.123-.633 1.81 1.81 0 00-.102-.644.952.952 0 00-.311-.427 1.36 1.36 0 00-.532-.235 3.466 3.466 0 00-.763-.073h-1.505zm1.505-1.596c.681 0 1.263.064 1.747.192.483.129.877.31 1.183.546.305.236.528.522.668.858.14.336.21.712.21 1.127 0 .233-.034.457-.101.672a2.003 2.003 0 01-.316.606c-.142.189-.325.36-.549.514-.224.154-.49.285-.798.392.69.163 1.202.43 1.533.798.331.369.497.847.497 1.435 0 .43-.083.828-.248 1.197a2.707 2.707 0 01-.725.959c-.317.27-.708.482-1.172.634-.465.151-.998.227-1.6.227h-3.934V6.843h3.605zm9.996 5.698c0-.2-.027-.392-.08-.574a1.335 1.335 0 00-.256-.483 1.239 1.239 0 00-.441-.332 1.513 1.513 0 00-.637-.123c-.462 0-.824.13-1.085.392-.261.261-.432.635-.511 1.12h3.01zm-3.038 1.148c.06.677.253 1.171.578 1.484.324.313.747.469 1.27.469.266 0 .496-.031.69-.095.193-.063.363-.132.51-.21l.4-.21a.75.75 0 01.353-.094c.15 0 .266.056.35.168l.56.7a3.047 3.047 0 01-.679.591c-.247.157-.504.28-.77.371a4.11 4.11 0 01-.805.19c-.27.035-.532.052-.784.052a3.94 3.94 0 01-1.41-.248 3.2 3.2 0 01-1.142-.735 3.444 3.444 0 01-.766-1.208c-.187-.48-.28-1.038-.28-1.673 0-.49.08-.952.242-1.386.16-.434.393-.812.696-1.134a3.318 3.318 0 011.106-.767 3.647 3.647 0 011.47-.283c.462 0 .888.073 1.277.22.39.148.726.361 1.008.641.283.28.502.624.659 1.033.156.408.234.873.234 1.396 0 .145-.007.264-.021.357a.634.634 0 01-.07.224.256.256 0 01-.133.116.628.628 0 01-.217.031h-4.326zm10.451-2.422a.57.57 0 01-.158.171.4.4 0 01-.22.053.665.665 0 01-.287-.07 13.028 13.028 0 00-.329-.15 3.532 3.532 0 00-.417-.151 1.901 1.901 0 00-.542-.07c-.313 0-.555.064-.728.192a.603.603 0 00-.259.508c0 .145.049.266.147.364.098.098.227.183.388.255.162.073.345.14.55.204.205.063.416.131.633.206.218.075.429.161.634.259.205.098.388.22.55.367.16.148.29.325.388.533.098.207.147.458.147.752 0 .35-.064.673-.193.97a2.118 2.118 0 01-.563.766 2.658 2.658 0 01-.924.504 4.074 4.074 0 01-1.274.182 4.081 4.081 0 01-1.428-.255 4.382 4.382 0 01-.616-.284 2.753 2.753 0 01-.497-.35l.448-.721a.574.574 0 01.193-.196.567.567 0 01.297-.07.63.63 0 01.322.087c.098.059.208.122.329.19.121.067.265.13.43.188.166.059.373.088.62.088.187 0 .348-.021.483-.063a.912.912 0 00.329-.171.683.683 0 00.245-.529.526.526 0 00-.15-.389 1.36 1.36 0 00-.392-.262 3.901 3.901 0 00-.557-.203 13.4 13.4 0 01-.64-.203 5.402 5.402 0 01-.637-.266 2.165 2.165 0 01-.553-.388 1.804 1.804 0 01-.392-.578 2.074 2.074 0 01-.151-.833 2.1 2.1 0 01.175-.85c.117-.269.292-.506.525-.711.233-.205.524-.369.872-.49a3.66 3.66 0 011.207-.182c.513 0 .98.084 1.4.252.42.168.765.387 1.036.658l-.441.686zm4.2 5.845a2.45 2.45 0 01-.868-.143 1.733 1.733 0 01-.637-.41 1.734 1.734 0 01-.392-.644 2.563 2.563 0 01-.133-.854v-3.892h-.679a.378.378 0 01-.263-.098c-.072-.065-.108-.163-.108-.294v-.756l1.155-.21.392-1.869c.051-.21.194-.315.427-.315h1.008v2.198h1.862v1.344h-1.862v3.766c0 .2.048.36.144.476a.5.5 0 00.409.175.784.784 0 00.406-.101c.047-.026.09-.05.13-.07a.259.259 0 01.122-.032c.056 0 .103.013.14.039a.425.425 0 01.112.129l.581.924a2.83 2.83 0 01-.903.476 3.407 3.407 0 01-1.043.161zm10.542-1.792c.34 0 .646-.057.917-.171.27-.115.5-.277.686-.487.187-.21.329-.464.427-.763.098-.299.147-.635.147-1.008V6.843h2.1v6.048c0 .616-.1 1.182-.297 1.697a3.84 3.84 0 01-.851 1.334 3.877 3.877 0 01-1.344.875c-.527.21-1.122.315-1.785.315-.663 0-1.259-.105-1.788-.315a3.87 3.87 0 01-1.348-.875 3.828 3.828 0 01-.85-1.334 4.691 4.691 0 01-.298-1.697V6.843h2.1v6.048c0 .373.049.71.147 1.008.098.299.24.553.427.763.187.21.415.372.686.486.27.115.579.172.924.172zm10.5-4.053a.57.57 0 01-.157.171.4.4 0 01-.221.053.665.665 0 01-.287-.07 13.028 13.028 0 00-.329-.15 3.532 3.532 0 00-.416-.151 1.901 1.901 0 00-.543-.07c-.313 0-.555.064-.728.192a.603.603 0 00-.259.508c0 .145.049.266.147.364.098.098.227.183.388.255.162.073.345.14.55.204.205.063.416.131.633.206.218.075.429.161.634.259.205.098.388.22.55.367.16.148.29.325.388.533.098.207.147.458.147.752 0 .35-.064.673-.193.97a2.118 2.118 0 01-.563.766 2.658 2.658 0 01-.924.504 4.074 4.074 0 01-1.274.182 4.081 4.081 0 01-1.428-.255 4.382 4.382 0 01-.616-.284 2.753 2.753 0 01-.497-.35l.448-.721a.574.574 0 01.193-.196.567.567 0 01.297-.07.63.63 0 01.322.087c.098.059.208.122.329.19.121.067.265.13.43.188.166.059.373.088.62.088.187 0 .348-.021.483-.063a.912.912 0 00.329-.171.683.683 0 00.245-.529.526.526 0 00-.15-.389 1.36 1.36 0 00-.392-.262 3.901 3.901 0 00-.557-.203 13.4 13.4 0 01-.64-.203 5.402 5.402 0 01-.638-.266 2.165 2.165 0 01-.553-.388 1.804 1.804 0 01-.391-.578 2.074 2.074 0 01-.151-.833 2.1 2.1 0 01.175-.85c.117-.269.292-.506.525-.711.233-.205.524-.369.872-.49a3.66 3.66 0 011.207-.182c.513 0 .98.084 1.4.252.42.168.765.387 1.036.658l-.441.686zm6.286 1.274c0-.2-.027-.392-.08-.574a1.335 1.335 0 00-.256-.483 1.239 1.239 0 00-.441-.332 1.513 1.513 0 00-.637-.123c-.462 0-.824.13-1.085.392-.261.261-.432.635-.511 1.12h3.01zm-3.038 1.148c.06.677.253 1.171.578 1.484.324.313.747.469 1.27.469.266 0 .496-.031.69-.095.193-.063.363-.132.51-.21l.4-.21a.75.75 0 01.353-.094c.15 0 .266.056.35.168l.56.7a3.047 3.047 0 01-.679.591c-.247.157-.504.28-.77.371a4.11 4.11 0 01-.805.19c-.27.035-.532.052-.784.052a3.94 3.94 0 01-1.41-.248 3.2 3.2 0 01-1.142-.735 3.444 3.444 0 01-.766-1.208c-.187-.48-.28-1.038-.28-1.673 0-.49.08-.952.242-1.386.16-.434.393-.812.696-1.134a3.318 3.318 0 011.106-.767 3.647 3.647 0 011.47-.283c.462 0 .888.073 1.278.22.39.148.725.361 1.007.641.283.28.502.624.658 1.033.157.408.235.873.235 1.396 0 .145-.007.264-.021.357a.634.634 0 01-.07.224.256.256 0 01-.133.116.628.628 0 01-.217.031h-4.326zm7.777-2.716c.229-.41.492-.735.791-.973a1.635 1.635 0 011.05-.357c.327 0 .593.077.798.231l-.126 1.428c-.023.093-.06.157-.109.193a.337.337 0 01-.199.052c-.075 0-.182-.01-.322-.032a2.652 2.652 0 00-.392-.031 1.35 1.35 0 00-.472.077c-.138.051-.26.124-.368.217a1.567 1.567 0 00-.29.343c-.087.135-.167.29-.242.462V17h-1.932V9.783h1.141c.196 0 .331.035.406.105.075.07.128.191.161.364l.105.721zM32.867 23.488v2.611h3.388v1.589h-3.388v2.667h4.354V32h-6.468V21.843h6.468v1.645h-4.354zM45.18 32h-1.855a.522.522 0 01-.34-.105.826.826 0 01-.206-.245l-1.421-2.373a1.43 1.43 0 01-.182.42l-1.218 1.953c-.056.089-.125.17-.206.242a.452.452 0 01-.312.108h-1.722l2.45-3.724-2.352-3.493h1.855c.14 0 .243.019.308.056a.506.506 0 01.175.182l1.414 2.289a1.81 1.81 0 01.224-.483l1.085-1.771c.112-.182.257-.273.434-.273h1.771l-2.352 3.409L45.18 32zm2.723-1.904c.182.21.38.357.592.441.212.084.44.126.682.126.233 0 .446-.044.637-.133.191-.089.356-.227.493-.417.138-.189.244-.43.319-.724.075-.294.112-.644.112-1.05 0-.401-.031-.742-.094-1.022a2.041 2.041 0 00-.267-.679 1.025 1.025 0 00-.416-.375 1.265 1.265 0 00-.546-.115c-.34 0-.626.066-.858.2-.23.133-.449.327-.654.584v3.164zm-.112-4.368c.145-.159.299-.304.462-.438a2.92 2.92 0 01.525-.342 2.808 2.808 0 011.302-.305c.387 0 .743.083 1.068.248.324.166.603.406.836.722.233.315.415.7.546 1.158.13.457.196.98.196 1.568 0 .541-.073 1.042-.22 1.502-.148.46-.356.857-.627 1.193-.27.336-.596.598-.976.788-.38.189-.804.283-1.271.283-.392 0-.724-.058-.997-.175a2.503 2.503 0 01-.732-.476v2.877h-1.932v-9.548h1.19c.243 0 .404.112.483.336l.147.609zm10.752 1.813c0-.2-.027-.392-.08-.574a1.335 1.335 0 00-.256-.483 1.239 1.239 0 00-.441-.333 1.513 1.513 0 00-.637-.122c-.462 0-.824.13-1.085.392-.261.261-.432.635-.511 1.12h3.01zm-3.038 1.148c.06.677.253 1.171.578 1.484.324.313.747.469 1.27.469.266 0 .496-.031.69-.095.193-.063.363-.132.51-.21l.4-.21a.75.75 0 01.353-.094c.15 0 .266.056.35.168l.56.7a3.047 3.047 0 01-.679.591c-.247.157-.504.28-.77.371a4.11 4.11 0 01-.805.19c-.27.035-.532.052-.784.052a3.94 3.94 0 01-1.41-.248 3.2 3.2 0 01-1.142-.735 3.444 3.444 0 01-.766-1.208c-.187-.48-.28-1.038-.28-1.673 0-.49.08-.952.242-1.386.16-.434.393-.812.696-1.134a3.318 3.318 0 011.106-.767 3.647 3.647 0 011.47-.283c.462 0 .888.073 1.277.22.39.148.726.361 1.008.641.283.28.502.624.659 1.032.156.409.234.874.234 1.397 0 .145-.007.264-.021.357a.634.634 0 01-.07.224.256.256 0 01-.133.115.628.628 0 01-.217.032h-4.326zm7.777-2.716c.229-.41.492-.735.791-.973a1.635 1.635 0 011.05-.357c.327 0 .593.077.798.231l-.126 1.428c-.023.093-.06.157-.109.192a.337.337 0 01-.199.053c-.075 0-.182-.01-.322-.032a2.652 2.652 0 00-.392-.031 1.35 1.35 0 00-.472.077c-.138.051-.26.124-.368.217a1.567 1.567 0 00-.29.343c-.087.135-.167.29-.242.462V32h-1.932v-7.217h1.141c.196 0 .331.035.406.105.075.07.128.191.161.364l.105.721zm5.453-1.19V32h-1.932v-7.217h1.932zm.231-2.051c0 .163-.033.315-.098.455a1.26 1.26 0 01-.262.371 1.226 1.226 0 01-1.309.252 1.177 1.177 0 01-.375-.252 1.24 1.24 0 01-.255-.371 1.096 1.096 0 01-.095-.455c0-.163.031-.316.094-.459a1.25 1.25 0 01.256-.374 1.177 1.177 0 01.826-.343 1.226 1.226 0 01.858.343c.11.107.197.232.262.374.065.143.098.296.098.459zm5.999 4.809c0-.2-.027-.392-.08-.574a1.335 1.335 0 00-.256-.483 1.239 1.239 0 00-.441-.333 1.513 1.513 0 00-.637-.122c-.462 0-.824.13-1.085.392-.261.261-.432.635-.511 1.12h3.01zm-3.038 1.148c.06.677.253 1.171.577 1.484.325.313.748.469 1.271.469.266 0 .496-.031.69-.095.193-.063.363-.132.51-.21l.4-.21a.75.75 0 01.353-.094c.15 0 .266.056.35.168l.56.7a3.047 3.047 0 01-.679.591c-.247.157-.504.28-.77.371a4.11 4.11 0 01-.805.19c-.27.035-.532.052-.784.052a3.94 3.94 0 01-1.41-.248 3.2 3.2 0 01-1.141-.735 3.444 3.444 0 01-.767-1.208c-.187-.48-.28-1.038-.28-1.673 0-.49.08-.952.242-1.386.16-.434.393-.812.696-1.134a3.318 3.318 0 011.106-.767 3.647 3.647 0 011.47-.283c.462 0 .888.073 1.277.22.39.148.726.361 1.008.641.283.28.502.624.659 1.032.156.409.234.874.234 1.397 0 .145-.007.264-.021.357a.634.634 0 01-.07.224.256.256 0 01-.133.115.628.628 0 01-.217.032h-4.326zm7.756-3.066c.145-.14.295-.268.451-.385a3 3 0 01.498-.301c.175-.084.363-.15.566-.196a2.95 2.95 0 01.662-.07c.392 0 .74.068 1.043.203.303.135.559.324.766.567.208.243.364.532.47.868.105.336.157.705.157 1.106V32h-1.925v-4.585c0-.401-.093-.713-.28-.934-.187-.222-.462-.333-.826-.333-.27 0-.525.058-.763.175a2.63 2.63 0 00-.679.49V32h-1.932v-7.217h1.19c.243 0 .404.112.483.336l.119.504zm11.382.77a.784.784 0 01-.168.171.408.408 0 01-.238.06.503.503 0 01-.27-.08 7.966 7.966 0 00-.297-.175 2.485 2.485 0 00-.399-.175 1.762 1.762 0 00-.574-.081c-.29 0-.54.052-.752.157a1.408 1.408 0 00-.529.452 2.04 2.04 0 00-.311.714c-.068.28-.102.595-.102.945 0 .737.148 1.302.445 1.694.296.392.7.588 1.214.588.177 0 .33-.015.459-.046.128-.03.24-.068.335-.115a1.33 1.33 0 00.249-.154c.07-.056.136-.107.2-.154a1.16 1.16 0 01.189-.116.486.486 0 01.213-.045c.15 0 .266.056.35.168l.553.7a3.296 3.296 0 01-1.383.962c-.25.092-.502.154-.759.19a5.642 5.642 0 01-.763.052 3.25 3.25 0 01-1.26-.248 3.013 3.013 0 01-1.043-.725 3.48 3.48 0 01-.71-1.169c-.176-.462-.263-.99-.263-1.582 0-.527.077-1.017.231-1.47a3.34 3.34 0 01.679-1.176 3.13 3.13 0 011.11-.78c.44-.19.95-.284 1.529-.284.55 0 1.034.089 1.449.266a3.48 3.48 0 011.12.77l-.504.686zm6.118 1.148c0-.2-.027-.392-.08-.574a1.335 1.335 0 00-.256-.483 1.239 1.239 0 00-.441-.333 1.513 1.513 0 00-.637-.122c-.462 0-.824.13-1.085.392-.261.261-.432.635-.511 1.12h3.01zm-3.038 1.148c.06.677.253 1.171.578 1.484.324.313.747.469 1.27.469.266 0 .496-.031.69-.095.193-.063.363-.132.51-.21l.4-.21a.75.75 0 01.353-.094c.15 0 .266.056.35.168l.56.7a3.047 3.047 0 01-.679.591c-.247.157-.504.28-.77.371a4.11 4.11 0 01-.805.19c-.27.035-.532.052-.784.052a3.94 3.94 0 01-1.41-.248 3.2 3.2 0 01-1.142-.735 3.444 3.444 0 01-.766-1.208c-.187-.48-.28-1.038-.28-1.673 0-.49.08-.952.242-1.386.16-.434.393-.812.696-1.134a3.318 3.318 0 011.106-.767 3.647 3.647 0 011.47-.283c.462 0 .888.073 1.278.22.39.148.725.361 1.007.641.283.28.502.624.658 1.032.157.409.235.874.235 1.397 0 .145-.007.264-.021.357a.634.634 0 01-.07.224.256.256 0 01-.133.115.628.628 0 01-.217.032h-4.326zm-56.48 25.297c.116 0 .208.034.276.102a.357.357 0 01.102.264V55h-5.736v-.366a.661.661 0 01.198-.456l2.754-2.766c.228-.232.436-.455.624-.669.188-.214.348-.429.48-.645.132-.216.234-.435.306-.657.072-.222.108-.459.108-.711 0-.252-.04-.473-.12-.663a1.3 1.3 0 00-.327-.471 1.358 1.358 0 00-.489-.279 1.923 1.923 0 00-.606-.093c-.22 0-.422.032-.606.096a1.572 1.572 0 00-1.05 1.188c-.048.14-.113.233-.195.279-.082.046-.197.059-.345.039l-.558-.096c.056-.392.165-.739.327-1.041a2.52 2.52 0 011.455-1.224 3.207 3.207 0 011.026-.159c.364 0 .704.054 1.02.162.316.108.59.265.822.471.232.206.414.457.546.753.132.296.198.632.198 1.008 0 .32-.048.617-.144.891a3.534 3.534 0 01-.39.783c-.164.248-.353.49-.567.726-.214.236-.441.474-.681.714l-2.268 2.316c.16-.044.322-.079.486-.105.164-.026.322-.039.474-.039h2.88zm7.638-3.282c0 .752-.081 1.403-.243 1.953-.162.55-.383 1.005-.663 1.365-.28.36-.611.628-.993.804a2.897 2.897 0 01-1.227.264 2.87 2.87 0 01-1.227-.264 2.678 2.678 0 01-.987-.804c-.28-.36-.5-.815-.66-1.365-.16-.55-.24-1.201-.24-1.953s.08-1.404.24-1.956c.16-.552.38-1.009.66-1.371.28-.362.609-.631.987-.807a2.87 2.87 0 011.227-.264c.436 0 .845.088 1.227.264.382.176.713.445.993.807.28.362.501.819.663 1.371.162.552.243 1.204.243 1.956zm-1.11 0c0-.656-.055-1.207-.165-1.653-.11-.446-.258-.805-.444-1.077a1.676 1.676 0 00-.645-.585 1.73 1.73 0 00-1.524 0 1.655 1.655 0 00-.642.585c-.184.272-.331.631-.441 1.077-.11.446-.165.997-.165 1.653s.055 1.206.165 1.65c.11.444.257.802.441 1.074s.398.467.642.585a1.73 1.73 0 001.524 0c.244-.118.459-.313.645-.585.186-.272.334-.63.444-1.074.11-.444.165-.994.165-1.65zm7.578 3.48V55h-4.608v-.816h1.842v-5.862c0-.176.006-.354.018-.534l-1.53 1.314a.345.345 0 01-.3.084.343.343 0 01-.21-.126l-.336-.462 2.562-2.214h.87v7.8h1.692zm7.338-7.782v.48c0 .136-.015.248-.045.336-.03.088-.059.162-.087.222l-3.564 7.182a.796.796 0 01-.216.267.567.567 0 01-.366.111h-.768l3.612-7.092a2.956 2.956 0 01.342-.516h-4.488a.243.243 0 01-.18-.081.257.257 0 01-.078-.183v-.726h5.838zm9.21 5.406l-1.35-3.498a7.972 7.972 0 01-.252-.804c-.084.324-.17.594-.258.81l-1.35 3.492h3.21zM70.743 55h-.9a.387.387 0 01-.252-.078.48.48 0 01-.144-.198l-.804-2.076h-3.858l-.804 2.076a.421.421 0 01-.138.192.383.383 0 01-.252.084h-.9l3.438-8.598h1.176L70.743 55zm9.264-6.078L78.039 55h-.846c-.104 0-.176-.068-.216-.204l-1.344-4.122a2.315 2.315 0 01-.078-.279l-.06-.279-.06.279c-.02.094-.046.189-.078.285l-1.368 4.116c-.036.136-.116.204-.24.204h-.804l-1.968-6.078h.84a.342.342 0 01.33.222l1.164 3.912c.068.288.122.56.162.816l.111-.402c.038-.136.079-.274.123-.414l1.284-3.936c.02-.06.055-.11.105-.15.05-.04.111-.06.183-.06h.468c.08 0 .146.02.198.06a.31.31 0 01.108.15l1.254 3.936c.044.14.084.278.12.414.036.136.07.27.102.402a5.81 5.81 0 01.075-.399c.03-.134.063-.273.099-.417l1.188-3.912a.32.32 0 01.312-.222h.804zm4.338 3.342a8.902 8.902 0 00-1.257.117 3.575 3.575 0 00-.846.243c-.218.1-.376.218-.474.354a.762.762 0 00-.147.456c0 .16.026.298.078.414a.77.77 0 00.213.285c.09.074.196.128.318.162s.253.051.393.051c.188 0 .36-.019.516-.057.156-.038.303-.093.441-.165.138-.072.27-.158.396-.258s.249-.214.369-.342v-1.26zm-3.45-2.484a3.47 3.47 0 011.086-.726c.388-.16.818-.24 1.29-.24.34 0 .642.056.906.168.264.112.486.268.666.468.18.2.316.442.408.726.092.284.138.596.138.936V55h-.474a.466.466 0 01-.24-.051c-.056-.034-.1-.101-.132-.201l-.12-.576c-.16.148-.316.279-.468.393a2.607 2.607 0 01-1.017.468c-.19.042-.401.063-.633.063a2.19 2.19 0 01-.666-.099 1.539 1.539 0 01-.543-.297 1.397 1.397 0 01-.366-.501 1.75 1.75 0 01-.135-.717c0-.24.066-.471.198-.693.132-.222.346-.419.642-.591.296-.172.682-.313 1.158-.423.476-.11 1.06-.173 1.752-.189v-.474c0-.472-.102-.829-.306-1.071-.204-.242-.502-.363-.894-.363-.264 0-.485.033-.663.099-.178.066-.332.14-.462.222a8.28 8.28 0 00-.336.222.485.485 0 01-.279.099.307.307 0 01-.186-.057.523.523 0 01-.132-.141l-.192-.342zm7.134.36c.192-.416.428-.741.708-.975.28-.234.622-.351 1.026-.351.128 0 .251.014.369.042a.99.99 0 01.315.132l-.078.798c-.024.1-.084.15-.18.15-.056 0-.138-.012-.246-.036a1.694 1.694 0 00-.366-.036 1.46 1.46 0 00-.513.084 1.2 1.2 0 00-.402.249 1.76 1.76 0 00-.318.408 3.497 3.497 0 00-.255.555V55h-1.074v-6.078h.612c.116 0 .196.022.24.066.044.044.074.12.09.228l.072.924zm7.314.228c-.2-.268-.416-.455-.648-.561a1.856 1.856 0 00-.78-.159c-.564 0-.998.202-1.302.606-.304.404-.456.98-.456 1.728 0 .396.034.735.102 1.017.068.282.168.514.3.696.132.182.294.315.486.399.192.084.41.126.654.126.352 0 .659-.08.921-.24.262-.16.503-.386.723-.678v-2.934zm1.068-4.206V55h-.636c-.152 0-.248-.074-.288-.222l-.096-.738a3.31 3.31 0 01-.888.756 2.26 2.26 0 01-1.152.288c-.348 0-.664-.067-.948-.201a1.966 1.966 0 01-.726-.591c-.2-.26-.354-.584-.462-.972a5.004 5.004 0 01-.162-1.338c0-.448.06-.865.18-1.251.12-.386.292-.721.516-1.005.224-.284.499-.507.825-.669a2.44 2.44 0 011.101-.243c.372 0 .691.063.957.189s.503.301.711.525v-3.366h1.068zM34.095 62.224v1.905h2.48v1.12h-2.48V68h-1.434v-6.892h4.389v1.116h-2.955zm5.111.879V68h-1.31v-4.897h1.31zm.157-1.392a.73.73 0 01-.066.309.856.856 0 01-.179.252.812.812 0 01-.582.232.798.798 0 01-.56-.233.84.84 0 01-.173-.251.744.744 0 01-.064-.309.76.76 0 01.064-.311.798.798 0 011.055-.425.812.812 0 01.439.425c.044.096.066.2.066.311zm2.18 1.962c.098-.095.2-.182.307-.262a1.859 1.859 0 011.17-.384c.267 0 .502.046.708.137.206.092.38.22.52.385.141.165.247.361.319.59.07.227.106.477.106.75V68h-1.306v-3.111c0-.273-.063-.484-.19-.634-.126-.15-.313-.226-.56-.226-.184 0-.356.04-.518.119-.162.079-.315.19-.46.332V68h-1.312v-4.897h.808c.164 0 .274.076.328.228l.08.342zm6.731 2.28a6.07 6.07 0 00-.798.083c-.212.04-.38.09-.506.154a.663.663 0 00-.266.216.476.476 0 00-.078.264c0 .19.053.325.159.404.106.079.254.118.444.118.219 0 .408-.038.568-.116.16-.077.319-.199.477-.363v-.76zm-2.67-2.171a2.93 2.93 0 01.955-.582 3.247 3.247 0 011.13-.192c.292 0 .553.047.782.142a1.67 1.67 0 01.953 1.003c.085.234.128.49.128.769V68h-.599a.611.611 0 01-.282-.052c-.065-.035-.118-.108-.16-.219l-.104-.313a4.689 4.689 0 01-.359.285 2.098 2.098 0 01-.358.206 1.872 1.872 0 01-.397.126c-.14.029-.298.043-.472.043-.216 0-.412-.028-.59-.085a1.28 1.28 0 01-.458-.255 1.12 1.12 0 01-.297-.42 1.502 1.502 0 01-.104-.58c0-.18.046-.36.138-.541.091-.18.249-.344.472-.492.223-.147.521-.269.893-.365.372-.097.838-.152 1.399-.164v-.252c0-.307-.065-.533-.195-.677-.13-.144-.316-.216-.56-.216-.18 0-.331.021-.451.064s-.226.089-.316.138l-.255.138a.57.57 0 01-.275.064.375.375 0 01-.23-.07.633.633 0 01-.155-.163l-.233-.418zm6.19-.11c.098-.094.2-.181.306-.26a1.837 1.837 0 01.722-.337c.138-.032.287-.048.449-.048.266 0 .502.046.708.137.206.092.379.22.52.385.14.165.247.361.318.59.071.227.107.477.107.75V68h-1.306v-3.111c0-.273-.064-.484-.19-.634-.127-.15-.314-.226-.56-.226-.184 0-.357.04-.519.119-.161.079-.315.19-.46.332V68h-1.311v-4.897h.807c.165 0 .274.076.328.228l.08.342zm7.723.523a.532.532 0 01-.114.117.277.277 0 01-.161.04.342.342 0 01-.183-.055 5.405 5.405 0 00-.202-.118 1.687 1.687 0 00-.27-.12 1.196 1.196 0 00-.39-.054 1.14 1.14 0 00-.51.107.955.955 0 00-.36.306 1.384 1.384 0 00-.21.485c-.047.19-.07.404-.07.641 0 .5.1.884.302 1.15a.977.977 0 00.824.399c.12 0 .224-.01.311-.031.087-.02.163-.047.228-.078a.902.902 0 00.169-.105c.047-.038.092-.073.135-.105a.797.797 0 01.128-.078.33.33 0 01.145-.03.28.28 0 01.238.113l.375.475a2.237 2.237 0 01-.938.653 2.48 2.48 0 01-.515.129 3.828 3.828 0 01-.518.035c-.301 0-.586-.056-.855-.168a2.044 2.044 0 01-.708-.492 2.362 2.362 0 01-.482-.793 3.016 3.016 0 01-.178-1.074c0-.358.052-.69.157-.997a2.123 2.123 0 011.214-1.328 2.61 2.61 0 011.037-.192c.374 0 .701.06.983.18.282.12.535.295.76.523l-.342.465zm4.152.78a1.37 1.37 0 00-.055-.39.906.906 0 00-.173-.328.84.84 0 00-.3-.226 1.027 1.027 0 00-.432-.083c-.313 0-.559.089-.736.266-.177.178-.293.43-.347.76h2.043zm-2.062.778c.041.46.172.795.392 1.007.22.212.508.319.862.319.18 0 .337-.022.468-.065a2.19 2.19 0 00.347-.142l.27-.143a.51.51 0 01.24-.064.28.28 0 01.238.114l.38.475c-.14.162-.293.296-.46.402-.169.106-.343.19-.523.251a2.79 2.79 0 01-.546.129 4.15 4.15 0 01-.532.035c-.343 0-.662-.056-.958-.168a2.172 2.172 0 01-.774-.5 2.337 2.337 0 01-.52-.819 3.124 3.124 0 01-.19-1.135c0-.332.055-.646.164-.94a2.25 2.25 0 01.472-.77c.206-.218.456-.392.751-.52s.627-.192.997-.192c.314 0 .603.05.867.15.265.1.493.244.684.434.192.19.34.424.447.7a2.637 2.637 0 01.145 1.19.43.43 0 01-.048.152.173.173 0 01-.09.079.426.426 0 01-.147.021h-2.936zM68.7 64.11a.387.387 0 01-.107.116.272.272 0 01-.15.036.451.451 0 01-.194-.048 8.84 8.84 0 00-.224-.102 2.397 2.397 0 00-.282-.102 1.29 1.29 0 00-.368-.048c-.212 0-.377.044-.494.131a.409.409 0 00-.176.344c0 .099.033.181.1.248a.876.876 0 00.263.173c.11.049.234.095.373.138.14.042.283.09.43.14.147.05.29.109.43.175.14.067.264.15.373.25.11.1.197.22.263.36.067.142.1.312.1.511 0 .238-.043.457-.13.658a1.437 1.437 0 01-.383.52c-.168.146-.377.26-.627.343-.25.082-.538.123-.864.123a2.77 2.77 0 01-.97-.173 2.973 2.973 0 01-.417-.193 1.868 1.868 0 01-.337-.237l.303-.49a.39.39 0 01.131-.133.385.385 0 01.202-.047c.08 0 .152.02.218.06.067.039.141.082.224.128.082.046.18.088.292.128.112.04.252.06.42.06.127 0 .236-.015.328-.044a.619.619 0 00.223-.116.464.464 0 00.166-.359.357.357 0 00-.102-.263.918.918 0 00-.266-.178 2.647 2.647 0 00-.377-.138 9.092 9.092 0 01-.435-.138 3.666 3.666 0 01-.432-.18 1.47 1.47 0 01-.375-.264 1.224 1.224 0 01-.266-.392 1.403 1.403 0 01-.102-.565 1.372 1.372 0 01.474-1.059c.159-.14.356-.25.592-.333.236-.082.509-.123.82-.123.348 0 .664.057.95.17.284.115.519.264.702.447l-.299.466zm7.776.489c0 .51-.081.978-.242 1.404-.162.426-.39.792-.684 1.1a3.057 3.057 0 01-1.062.714 3.58 3.58 0 01-1.37.254c-.5 0-.957-.084-1.368-.254a3.062 3.062 0 01-1.06-.715 3.214 3.214 0 01-.684-1.1 3.929 3.929 0 01-.242-1.403c0-.51.08-.978.242-1.404a3.24 3.24 0 01.684-1.102 3.074 3.074 0 011.06-.72 3.533 3.533 0 011.368-.256c.5 0 .957.086 1.37.257.413.17.767.41 1.062.72.294.308.522.675.683 1.101.162.426.243.894.243 1.404zm-.945 0a3.46 3.46 0 00-.171-1.126 2.381 2.381 0 00-.485-.843 2.102 2.102 0 00-.76-.53 2.58 2.58 0 00-.998-.185 2.57 2.57 0 00-.992.185 2.13 2.13 0 00-.763.53c-.21.23-.372.51-.487.843a3.46 3.46 0 00-.17 1.126c0 .418.056.792.17 1.123.115.331.277.612.487.841.211.23.465.405.763.527.297.122.628.183.993.183.367 0 .7-.06.997-.183a2.07 2.07 0 00.76-.527c.209-.23.37-.51.485-.84.114-.332.17-.706.17-1.124zm2.859-.713c.105-.117.215-.223.333-.318.117-.095.241-.176.372-.244a1.893 1.893 0 01.896-.212c.263 0 .495.044.696.13.2.088.369.211.503.371.135.16.237.353.307.578.07.224.104.473.104.745V68h-.85v-3.064c0-.364-.083-.647-.25-.848-.166-.2-.418-.301-.757-.301-.25 0-.484.06-.7.18-.218.12-.418.284-.602.49V68h-.85v-4.812h.508c.12 0 .195.059.224.176l.066.523zm5.377-2.883V68h-.846v-6.997h.846zm2.261 2.185V68h-.846v-4.812h.846zm.18-1.51a.526.526 0 01-.05.23.663.663 0 01-.132.19.61.61 0 01-.43.178.56.56 0 01-.23-.047.597.597 0 01-.188-.13.648.648 0 01-.129-.19.594.594 0 010-.465.597.597 0 01.316-.325.594.594 0 01.66.13c.056.054.1.12.134.194a.57.57 0 01.05.235zm2.005 2.209c.105-.118.215-.224.332-.319.118-.095.242-.176.373-.244a1.893 1.893 0 01.896-.212c.263 0 .495.044.696.13.2.088.369.211.503.371.135.16.237.353.306.578.07.224.105.473.105.745V68h-.85v-3.064c0-.364-.083-.647-.25-.848-.166-.2-.418-.301-.757-.301-.25 0-.484.06-.7.18-.218.12-.418.284-.602.49V68h-.85v-4.812h.508c.12 0 .195.059.224.176l.066.523zm7.724 1.182c0-.196-.028-.376-.084-.539a1.21 1.21 0 00-.242-.423 1.08 1.08 0 00-.387-.275 1.307 1.307 0 00-.518-.098c-.405 0-.726.118-.962.354s-.382.563-.439.981h2.632zm.683 2.257c-.104.126-.23.236-.375.33-.145.093-.301.17-.468.23a3.148 3.148 0 01-1.043.18 2.45 2.45 0 01-.918-.168 2.017 2.017 0 01-.727-.494 2.266 2.266 0 01-.477-.805 3.274 3.274 0 01-.172-1.102c0-.336.052-.65.155-.94.103-.292.25-.545.444-.758a2.05 2.05 0 01.708-.504c.278-.122.592-.183.94-.183.288 0 .555.049.8.145a1.81 1.81 0 011.057 1.093c.102.267.152.572.152.914 0 .133-.014.222-.042.266-.029.044-.083.067-.162.067h-3.216c.01.304.052.568.126.793.075.225.178.412.312.563.133.15.29.262.475.337.183.074.389.111.617.111.212 0 .395-.024.549-.073a2.61 2.61 0 00.674-.318.368.368 0 01.192-.074c.07 0 .124.027.162.08l.237.31z"/></g></svg>