<svg xmlns="http://www.w3.org/2000/svg" width="129" height="72"><g fill="none" fill-rule="evenodd"><path d="M0 0h129v72H0z"/><path fill="#7B8BA2" d="M118.428 6.69c1.174.324 2.195 1.41 2.91 2.48a14.895 14.895 0 011.54 2.962c.328.835.429 1.996.491 2.9.064.907-.222 3.034-.295 3.887a44.537 44.537 0 01-.484 3.412c-1.198-.968-2.514-2.08-3.418-2.731-.901-.652-2.056-1.703-2.7-2.125-.644-.423-1.542-1.247-1.776-2.248-.238-.997-.3-1.655-.197-2.208 1.02.878 2.688 1.779 3.425 2.079.734.297 1.738.97 2.12 1.418-.087-1.55.063-3.168.025-4.157-.05-1.296-.697-3.783-1.64-5.67zm6.67 9.326c.925 1.246 1.512 2.404 1.812 3.84.296 1.44.453 3.097.408 4.21-.043 1.11-.595 2.732-1.082 3.781-.485 1.048-1.974 3.702-2.489 4.393-.915-1.511-1.848-3.36-2.596-4.226-.719-.838-1.768-2.07-2.395-3.08-.624-1.006-1.465-3.317-1.461-4.562 1.364 1.44 2.83 2.53 3.516 3.183.685.65 2.276 1.97 2.597 2.829.343-1.942.992-3.742 1.17-4.848.176-1.105.619-4.036.52-5.52zm3.204 10.87c.299 1.335.553 2.71.405 4.49-.146 1.78-.703 3.694-1.38 4.681-.676.988-1.585 2.053-2.386 2.908-.8.854-2.366 2.24-2.952 3.063-.147-1.968-.547-3.34-.953-4.561-.43-1.289-1.097-3.077-1.768-4.77-.67-1.695-1.158-3.72-.525-4.708.86 1.148 1.934 2.393 2.543 3.447.607 1.05 1.055 1.985 1.324 2.662.245.617.596 1.349.697 2.119.69-1.369 1.245-2.576 1.83-3.356.587-.78 1.278-1.83 1.744-2.809a77.766 77.766 0 001.421-3.167zm-9.413 9.149c.284 1.457.568 2.955.944 4.246.378 1.292.96 3.907 1.082 5.187.886-.979 1.875-1.81 2.843-2.702a29.07 29.07 0 002.674-2.818 452.96 452.96 0 002.318-2.863c.15.699.218 1.408.193 2.116a8.283 8.283 0 01-.868 3.414c-.873 1.744-2.431 3.664-3.575 4.674-1.143 1.007-2.583 2.047-3.497 2.64-.916.592-2.376 1.267-2.937 1.496.172-1.764.147-4.17-.048-5.752-.197-1.578-.459-3.628-.406-5.111.058-1.484.395-3.676 1.277-4.527zm-3.425 18.398c.658-.224 1.718-.646 2.34-1.003.62-.36 2.038-1.066 3.322-1.777a23.895 23.895 0 004.729-3.44c.018.819-.2 2.105-.583 3.123-.383 1.016-1.787 2.634-3.132 3.777-1.39 1.18-3.137 2.09-4.811 2.655-1.673.568-4.096.834-6.362.939.383-1.063.894-3.328 1.16-4.654.261-1.324.797-4.235 1.148-5.641.354-1.41.893-3.197 2.365-4.29-.11.687.099 2.207.078 2.812-.02.601.105 2.035.06 3.328a45.76 45.76 0 01-.314 4.171zm4.494 4.228c-.427 1.334-1.104 2.317-2.036 3.201-.928.882-2.15 1.467-3.198 1.822-1.304.444-4.785.968-6.7.89-1.766-.07-3.726-.693-4.636-.998-.88-.295-2.077-.745-2.588-.9 1.274-.781 1.98-1.583 2.97-3.014.992-1.433 2.046-3.5 2.946-4.725.897-1.224 2.675-3.08 4.163-3.764a111.973 111.973 0 00-1.486 4.927c-.339 1.255-1.19 3.797-1.969 5.285 2.035-.318 4.677-.769 6.151-1.07 1.476-.304 3.905-.852 4.557-1.073.654-.22 1.302-.355 1.826-.581zM111.391 5c1.05.19 2.58.582 3.785 1.554 1.211.966 2.41 2.36 2.904 3.758.497 1.394.687 2.641.5 3.269-1.128-.581-2.778-1.535-3.552-2.262-.773-.73-1.623-2.019-2.173-3.075A35.66 35.66 0 01111.39 5zM10.519 6.69c-.943 1.886-1.59 4.373-1.64 5.67-.038.988.112 2.607.025 4.156.382-.448 1.386-1.121 2.12-1.418.737-.3 2.404-1.2 3.425-2.08.103.554.041 1.212-.198 2.21-.233 1-1.131 1.824-1.775 2.247-.644.422-1.799 1.473-2.7 2.125-.904.65-2.22 1.763-3.418 2.73a44.537 44.537 0 01-.485-3.411c-.072-.853-.358-2.98-.294-3.887.062-.904.163-2.065.49-2.9.328-.832.764-1.803 1.54-2.962.716-1.07 1.737-2.156 2.91-2.48zM3.85 16.016c-.099 1.484.344 4.415.519 5.52.179 1.106.828 2.906 1.17 4.848.322-.86 1.913-2.179 2.597-2.829.686-.654 2.153-1.743 3.517-3.183.004 1.245-.837 3.556-1.461 4.563-.627 1.008-1.676 2.241-2.395 3.079-.749.865-1.681 2.715-2.597 4.226-.514-.691-2.003-3.345-2.489-4.393-.486-1.049-1.038-2.671-1.082-3.781-.045-1.113.113-2.77.409-4.21.3-1.436.887-2.594 1.812-3.84zM.646 26.886c.328.793.95 2.18 1.42 3.166.467.98 1.158 2.028 1.744 2.809.586.78 1.142 1.987 1.83 3.356.102-.77.453-1.502.698-2.12.268-.676.717-1.61 1.324-2.661.61-1.054 1.682-2.299 2.543-3.447.633.989.145 3.013-.525 4.708a99.27 99.27 0 00-1.768 4.77c-.407 1.221-.807 2.593-.953 4.561-.587-.823-2.152-2.209-2.952-3.063-.801-.855-1.71-1.92-2.387-2.908-.677-.987-1.233-2.9-1.379-4.68-.149-1.78.106-3.156.405-4.492zm9.412 9.149c.883.85 1.22 3.043 1.277 4.527.053 1.483-.209 3.533-.405 5.111-.195 1.582-.22 3.988-.048 5.752-.561-.23-2.021-.904-2.937-1.495-.914-.594-2.354-1.634-3.497-2.641-1.144-1.01-2.702-2.93-3.575-4.674A8.283 8.283 0 01.005 39.2a8.637 8.637 0 01.193-2.116c.623.777 1.65 2.047 2.318 2.863a29.07 29.07 0 002.674 2.818c.968.891 1.957 1.723 2.843 2.702.123-1.28.704-3.895 1.082-5.187.376-1.29.66-2.789.943-4.246zm3.426 18.398a45.759 45.759 0 01-.314-4.17c-.045-1.294.08-2.728.06-3.33-.021-.604.187-2.124.078-2.81 1.471 1.092 2.01 2.879 2.364 4.289.352 1.406.887 4.317 1.15 5.64.265 1.327.776 3.592 1.16 4.655-2.267-.105-4.69-.371-6.363-.94-1.674-.564-3.422-1.474-4.81-2.654-1.346-1.143-2.75-2.761-3.133-3.777-.383-1.018-.601-2.304-.583-3.123a23.895 23.895 0 004.73 3.44c1.283.71 2.701 1.418 3.32 1.777.623.357 1.683.779 2.341 1.003zM8.99 58.661c.524.226 1.172.36 1.826.581.652.22 3.081.769 4.557 1.073 1.474.301 4.115.752 6.15 1.07-.778-1.488-1.63-4.03-1.968-5.285-.34-1.254-.915-3.176-1.486-4.927 1.487.683 3.266 2.54 4.163 3.764.9 1.225 1.954 3.292 2.945 4.725.99 1.43 1.697 2.233 2.97 3.013-.51.156-1.708.606-2.587.9-.91.306-2.87.928-4.636 1-1.915.077-5.396-.447-6.7-.891-1.048-.355-2.27-.94-3.199-1.822-.932-.884-1.608-1.867-2.035-3.201zM17.557 5a35.66 35.66 0 01-1.464 3.244c-.55 1.056-1.4 2.345-2.173 3.075-.775.727-2.424 1.68-3.552 2.262-.188-.628.003-1.875.5-3.27.494-1.397 1.692-2.791 2.903-3.757C14.977 5.582 16.507 5.19 17.557 5z"/><path stroke="#C0CDDF" stroke-linecap="round" stroke-linejoin="round" stroke-width=".8" d="M24.5 48.5h80"/><path d="M51.9 63.455c-.033-.102-.133-.169-.233-.135-.267.135-.767.236-1.134.236-1.8 0-2.566-1.452-2.566-3.039 0-1.384.533-2.735 2.1-2.735.566 0 .9.135.966.506l.1.608c.034.102.1.135.167.135h.433c.1 0 .167-.067.167-.169v-1.688a.228.228 0 00-.133-.202 7.194 7.194 0 00-1.434-.17c-2.333 0-4.066 1.52-4.066 3.918 0 2.262 1.633 3.917 3.933 3.917.733 0 1.5-.237 1.8-.372.067-.034.1-.135.067-.236-.034.034-.167-.574-.167-.574zm4.333-.676a.909.909 0 01-.933.912c-.5 0-.867-.338-.867-.81 0-.608.434-1.08 1.7-1.08.067 0 .1.033.1.1v.878zm2.1 1.013c0-.1-.066-.135-.166-.135-.1.034-.167.034-.267.034-.2 0-.267-.135-.267-.338v-2.6c0-1.52-.866-2.093-2.233-2.093-.667 0-1.367.135-1.867.338-.1.033-.133.135-.1.236l.134.675c.033.135.133.135.233.102.3-.17.733-.304 1.2-.304.7 0 1.233.27 1.233.945v.236c0 .068-.033.17-.1.17-1.666 0-3.1.54-3.1 2.093 0 .912.634 1.587 1.634 1.587.866 0 1.333-.405 1.7-.777h.033c.033.44.267.777.867.777.366 0 .866-.101 1.033-.169.067-.034.1-.067.1-.169l-.067-.608zm2.7-3.14c0-.54.434-.912 1-.912.9 0 1.267.912 1.267 1.858 0 .945-.333 1.992-1.4 1.992-.567 0-.867-.27-.867-.743v-2.195zm.834 6.078c.1 0 .166-.067.166-.169v-.27c0-.067-.033-.169-.133-.169l-.667-.1c-.1-.035-.2-.136-.2-.339v-1.215c.134 0 .4.034.6.034 2.067 0 3.2-1.284 3.2-3.208 0-1.587-.9-2.634-2.166-2.634-.834 0-1.334.439-1.734.844H60.9l-.067-.608c0-.101-.066-.202-.2-.169l-1.766.17c-.1 0-.167.067-.167.168v.27c0 .068.033.135.133.169l.5.068c.167.033.234.236.234.371v5.74c0 .237-.1.338-.2.338l-.434.135c-.1.034-.133.101-.133.169v.27c0 .101.067.169.167.169l2.9-.034zm7.433-3.14c0-.101-.1-.135-.2-.135-.233.067-.433.135-.667.135-.6 0-.933-.405-.933-1.013v-2.634c0-.068.067-.135.167-.135h1.366c.034 0 .067-.068.067-.101v-.676c0-.033-.033-.101-.067-.101h-1.366c-.067 0-.134-.068-.134-.135v-1.182c0-.135-.033-.203-.166-.169l-1.067.338c-.133.034-.167.135-.167.27v.71c0 .1 0 .168-.133.168h-.667c-.033 0-.066.068-.066.101l-.067.642c0 .101 0 .135.067.135H66c.067 0 .133.034.133.135v2.972c0 1.114.767 1.755 1.834 1.755.433 0 1-.1 1.366-.27.067-.033.1-.101.1-.202l-.133-.608zm4.033-3.31c0 .777-.733 1.047-1.466 1.047-.167 0-.334 0-.434-.033-.1 0-.133-.034-.133-.135-.033-.71.333-1.722 1.2-1.722.467-.034.833.37.833.844zm1.167 3.107c-.033-.101-.133-.169-.233-.101-.267.135-.667.338-1.234.338-.766 0-1.6-.507-1.666-1.385 0-.101.033-.135.133-.135.233 0 .467.034.733.034 1.134 0 2.534-.507 2.534-1.79 0-1.114-1-1.722-2.067-1.722-1.567 0-2.867 1.25-2.867 3.005 0 1.79 1 3.04 2.967 3.04.6 0 1.267-.17 1.733-.44.067-.033.134-.135.1-.236l-.133-.608zm4.1 1.148c.1 0 .167-.067.167-.168v-.27c0-.068-.034-.136-.134-.17l-.666-.1c-.1 0-.2-.136-.2-.338v-2.567c0-.574.5-.945 1.033-.945.2 0 .5.034.667.101.1.034.2-.034.233-.101l.233-1.047c.034-.135 0-.203-.066-.236a1.204 1.204 0 00-.5-.102c-.7 0-1.2.473-1.634 1.08H77.7l-.1-.843c0-.135-.067-.203-.167-.203l-1.766.203c-.1 0-.167.067-.167.169v.27c0 .067.033.135.133.169l.534.1c.166.035.233.237.233.372v3.546c0 .236-.1.337-.2.337l-.467.102c-.1.034-.133.101-.133.169v.27c0 .101.067.169.167.169-.067.033 2.833.033 2.833.033zm4.833 0c.1 0 .167-.067.167-.168v-.27c0-.068-.033-.136-.133-.17l-.667-.1c-.1 0-.2-.136-.2-.338v-2.567c0-.574.5-.945 1.033-.945.2 0 .5.034.667.101.1.034.2-.034.233-.101l.234-1.047c.033-.135 0-.203-.067-.236a1.204 1.204 0 00-.5-.102c-.7 0-1.2.473-1.633 1.08h-.034l-.1-.843c0-.135-.066-.203-.166-.203l-1.767.203c-.1 0-.167.067-.167.169v.27c0 .067.034.135.134.169l.533.1c.167.035.233.237.233.372v3.546c0 .236-.1.337-.2.337l-.466.102c-.1.034-.134.101-.134.169v.27c0 .101.067.169.167.169-.033.033 2.833.033 2.833.033zm5.1-1.756a.909.909 0 01-.933.912c-.5 0-.867-.338-.867-.81 0-.608.434-1.08 1.7-1.08.067 0 .1.033.1.1v.878zm2.1 1.013c0-.1-.066-.135-.166-.135-.1.034-.167.034-.267.034-.2 0-.3-.135-.3-.338v-2.6c0-1.52-.867-2.093-2.233-2.093-.667 0-1.367.135-1.867.338-.1.033-.133.135-.1.236l.133.675c.034.135.134.135.234.102.3-.17.733-.304 1.2-.304.7 0 1.233.27 1.233.945v.236c0 .068-.033.17-.1.17-1.7 0-3.1.54-3.1 2.093 0 .912.633 1.587 1.633 1.587.867 0 1.334-.405 1.667-.777h.033c.034.44.3.777.867.777.367 0 .867-.101 1.033-.169.067-.034.1-.067.1-.169v-.608zm-54.166-3.41H38.4c.067 0 .133-.034.133-.101.2-.777.867-1.351 1.667-1.351s1.5.54 1.667 1.35c0 .068.066.102.133.102h1.933c.067 0 .134-.068.134-.135v-.135c-.1-1.317-1.1-3.715-3.767-6.078a.21.21 0 00-.2 0c-.033.034-2.733 2.397-3.6 5.403-.067.168-.1.303-.133.438 0 0 0 .034-.034.136l-.033.202c0 .034 0 .068.033.101.067.034.1.068.134.068zm7.466.743H42c-.067 0-.133.034-.133.101-.2.777-.867 1.35-1.667 1.35s-1.5-.54-1.667-1.35c0-.067-.066-.101-.133-.101h-1.933c-.067 0-.134.067-.134.135v.135c.1 1.317 1.134 3.714 3.767 6.078a.21.21 0 00.2 0c.033-.034 2.733-2.397 3.6-5.403.067-.168.1-.304.133-.439 0 0 0-.033.034-.135l.033-.202c0-.034 0-.068-.033-.102a.251.251 0 00-.134-.067zm46.834-3.68c0-.136.033-.27.066-.406.034-.135.1-.236.134-.338.066-.1.133-.202.233-.304.1-.1.2-.168.3-.236.1-.067.233-.101.333-.135.134-.034.267-.068.4-.068.134 0 .267.034.4.068.134.034.234.101.334.135.1.068.2.135.3.236.1.102.166.203.233.304.067.102.1.237.133.338.034.101.067.27.067.405s-.033.27-.067.405c-.033.136-.1.237-.133.338-.033.101-.133.203-.233.304-.1.101-.2.169-.3.236-.1.068-.234.102-.334.135a1.654 1.654 0 01-.4.068c-.133 0-.266-.034-.4-.068-.133-.033-.233-.1-.333-.135a1.82 1.82 0 01-.3-.236 1.853 1.853 0 01-.233-.304c-.067-.101-.1-.236-.134-.338a1.468 1.468 0 01-.066-.405zm.2 0a1.054 1.054 0 00.166.64c.067.102.134.17.2.271.067.067.167.135.267.203.1.067.2.1.3.135.1.033.233.033.333.033.167 0 .334-.033.5-.1.167-.068.3-.17.4-.271.1-.101.2-.27.267-.405.067-.17.1-.338.1-.507 0-.135 0-.236-.033-.337-.034-.102-.067-.203-.134-.304-.066-.102-.133-.17-.2-.27-.066-.102-.166-.136-.266-.203-.1-.068-.2-.101-.3-.135-.1-.034-.234-.034-.334-.034-.166 0-.333.034-.5.101-.166.068-.3.17-.4.27-.1.136-.2.27-.266.406a1.14 1.14 0 00-.1.506zm.966.168v.71h-.3v-1.79h.567c.233 0 .4.033.5.135.1.1.167.202.167.371a.576.576 0 01-.1.338c-.067.101-.167.135-.334.169.034 0 .034.033.067.067 0 .034.033.034.033.068l.467.675h-.3c-.033 0-.067 0-.1-.068l-.4-.607c0-.034-.033-.034-.033-.034h-.234v-.034zm0-.236h.234c.066 0 .133 0 .2-.034.066 0 .1-.034.133-.068.033-.033.067-.067.067-.1 0-.035.033-.068.033-.136 0-.034 0-.101-.033-.135 0-.034-.034-.068-.067-.101-.033-.034-.067-.034-.1-.068-.033 0-.1-.034-.167-.034h-.266v.676h-.034z" fill="#7B8BA2" fill-rule="nonzero"/><g fill="#7B8BA2" fill-rule="nonzero"><path d="M30.8 38.4l-3.503 1.841a.8.8 0 01-1.16-.843l.669-3.9-2.834-2.762a.8.8 0 01.443-1.365l3.916-.569 1.752-3.548a.8.8 0 011.434 0l1.752 3.548 3.916.57a.8.8 0 01.443 1.364l-2.834 2.762.67 3.9a.8.8 0 01-1.161.843L30.8 38.4zm16.8 0l-3.503 1.841a.8.8 0 01-1.16-.843l.669-3.9-2.834-2.762a.8.8 0 01.443-1.365l3.916-.569 1.752-3.548a.8.8 0 011.434 0l1.752 3.548 3.916.57a.8.8 0 01.443 1.364l-2.834 2.762.67 3.9a.8.8 0 01-1.161.843L47.6 38.4zm16.8 0l-3.503 1.841a.8.8 0 01-1.16-.843l.669-3.9-2.834-2.762a.8.8 0 01.443-1.365l3.916-.569 1.752-3.548a.8.8 0 011.434 0l1.752 3.548 3.916.57a.8.8 0 01.443 1.364l-2.834 2.762.67 3.9a.8.8 0 01-1.161.843L64.4 38.4zm16.8 0l-3.503 1.841a.8.8 0 01-1.16-.843l.669-3.9-2.834-2.762a.8.8 0 01.443-1.365l3.916-.569 1.752-3.548a.8.8 0 011.434 0l1.752 3.548 3.916.57a.8.8 0 01.443 1.364l-2.834 2.762.67 3.9a.8.8 0 01-1.161.843L81.2 38.4z"/><path d="M98 38.4l-3.503 1.841a.8.8 0 01-1.16-.843l.669-3.9-2.834-2.762a.8.8 0 01.443-1.365l3.916-.569 1.752-3.548a.8.8 0 011.434 0l1.752 3.548 3.916.57a.8.8 0 01.443 1.364l-2.834 2.762.67 3.9a.8.8 0 01-1.161.843L98 38.4z" opacity=".2"/><path d="M98.4 26.915V38.61l-.4-.21-3.503 1.841a.8.8 0 01-1.16-.843l.669-3.9-2.834-2.762a.8.8 0 01.443-1.365l3.916-.569 1.752-3.548a.8.8 0 011.117-.34z"/></g><path fill="#7B8BA2" d="M32.096 15.866c.332 0 .629-.056.891-.168.262-.112.484-.268.666-.468.182-.2.321-.441.417-.723a2.9 2.9 0 00.144-.939V8.36h1.398v5.208c0 .508-.081.978-.243 1.41a3.205 3.205 0 01-.699 1.119c-.304.314-.673.56-1.107.738a3.835 3.835 0 01-1.467.267 3.835 3.835 0 01-1.467-.267 3.218 3.218 0 01-1.107-.738 3.205 3.205 0 01-.699-1.119 3.985 3.985 0 01-.243-1.41V8.36h1.404v5.202c0 .344.048.657.144.939.096.282.234.524.414.726.18.202.401.359.663.471.262.112.559.168.891.168zm8.88-3.876a.32.32 0 01-.108.12.287.287 0 01-.15.036.482.482 0 01-.222-.063 9.217 9.217 0 00-.282-.141 2.433 2.433 0 00-.381-.141 1.865 1.865 0 00-.513-.063c-.16 0-.305.019-.435.057a.979.979 0 00-.33.162.733.733 0 00-.207.246.657.657 0 00-.072.303c0 .144.044.264.132.36.088.096.204.179.348.249s.308.133.492.189c.184.056.372.116.564.18.192.064.38.138.564.222.184.084.348.187.492.309.144.122.26.27.348.444.088.174.132.385.132.633 0 .288-.052.554-.156.798a1.792 1.792 0 01-.456.636c-.2.18-.449.32-.747.42-.298.1-.639.15-1.023.15-.212 0-.417-.019-.615-.057a3.537 3.537 0 01-.564-.156 3.006 3.006 0 01-.498-.237 2.622 2.622 0 01-.411-.3l.3-.492a.416.416 0 01.135-.141.37.37 0 01.201-.051c.084 0 .167.027.249.081.082.054.178.113.288.177.11.064.243.123.399.177.156.054.35.081.582.081.192 0 .358-.023.498-.069a.998.998 0 00.348-.189.76.76 0 00.27-.6.56.56 0 00-.132-.384 1.12 1.12 0 00-.351-.258 3.238 3.238 0 00-.498-.192 20.304 20.304 0 01-.567-.18 5.943 5.943 0 01-.567-.222 1.95 1.95 0 01-.498-.321 1.465 1.465 0 01-.351-.474 1.584 1.584 0 01-.132-.681 1.692 1.692 0 01.579-1.278 2.1 2.1 0 01.702-.399c.278-.098.599-.147.963-.147.412 0 .786.066 1.122.198.336.132.618.312.846.54l-.288.468zm5.598 1.26c0-.216-.031-.417-.093-.603a1.412 1.412 0 00-.273-.486 1.245 1.245 0 00-.447-.324 1.52 1.52 0 00-.615-.117c-.468 0-.836.134-1.104.402-.268.268-.438.644-.51 1.128h3.042zm-3.078.792c.016.348.07.649.162.903s.215.465.369.633c.154.168.338.293.552.375.214.082.453.123.717.123.252 0 .47-.029.654-.087a3.07 3.07 0 00.48-.192c.136-.07.252-.134.348-.192a.52.52 0 01.264-.087c.104 0 .184.04.24.12l.366.474c-.152.18-.324.332-.516.456a3.006 3.006 0 01-.612.303 3.457 3.457 0 01-.666.168c-.228.034-.45.051-.666.051a3.2 3.2 0 01-1.179-.213 2.622 2.622 0 01-.942-.627 2.895 2.895 0 01-.624-1.026c-.15-.408-.225-.878-.225-1.41 0-.424.067-.82.201-1.188s.326-.688.576-.96c.25-.272.554-.487.912-.645a2.98 2.98 0 011.215-.237c.376 0 .724.061 1.044.183.32.122.596.301.828.537.232.236.413.525.543.867.13.342.195.731.195 1.167 0 .2-.022.334-.066.402-.044.068-.124.102-.24.102h-3.93zm6.654-2.028c.192-.388.424-.693.696-.915.272-.222.598-.333.978-.333.132 0 .256.015.372.045.116.03.22.075.312.135l-.09.972c-.016.068-.041.115-.075.141a.216.216 0 01-.135.039c-.06 0-.146-.011-.258-.033a1.834 1.834 0 00-.354-.033c-.18 0-.339.026-.477.078a1.153 1.153 0 00-.372.228c-.11.1-.207.222-.291.366a3.53 3.53 0 00-.234.492V17h-1.29v-6.12h.75c.136 0 .23.025.282.075.052.05.088.137.108.261l.078.798zm8.946.486c.32 0 .6-.039.84-.117.24-.078.44-.187.6-.327.16-.14.28-.307.36-.501.08-.194.12-.409.12-.645 0-.472-.156-.832-.468-1.08-.312-.248-.784-.372-1.416-.372h-1.14V12.5h1.104zm4.068 4.5H61.91c-.248 0-.428-.096-.54-.288l-2.016-2.91a.665.665 0 00-.222-.216c-.08-.044-.2-.066-.36-.066h-.78V17h-1.404V8.36h2.544c.568 0 1.057.058 1.467.174.41.116.747.281 1.011.495.264.214.459.471.585.771.126.3.189.634.189 1.002 0 .3-.045.58-.135.84-.09.26-.22.496-.39.708-.17.212-.379.396-.627.552-.248.156-.53.278-.846.366.172.104.32.25.444.438L63.164 17zm4.818-3.75c0-.216-.031-.417-.093-.603a1.412 1.412 0 00-.273-.486 1.245 1.245 0 00-.447-.324 1.52 1.52 0 00-.615-.117c-.468 0-.836.134-1.104.402-.268.268-.438.644-.51 1.128h3.042zm-3.078.792c.016.348.07.649.162.903s.215.465.369.633c.154.168.338.293.552.375.214.082.453.123.717.123.252 0 .47-.029.654-.087a3.07 3.07 0 00.48-.192c.136-.07.252-.134.348-.192a.52.52 0 01.264-.087c.104 0 .184.04.24.12l.366.474c-.152.18-.324.332-.516.456a3.006 3.006 0 01-.612.303 3.457 3.457 0 01-.666.168c-.228.034-.45.051-.666.051a3.2 3.2 0 01-1.179-.213 2.622 2.622 0 01-.942-.627 2.895 2.895 0 01-.624-1.026c-.15-.408-.225-.878-.225-1.41 0-.424.067-.82.201-1.188s.326-.688.576-.96c.25-.272.554-.487.912-.645a2.98 2.98 0 011.215-.237c.376 0 .724.061 1.044.183.32.122.596.301.828.537.232.236.413.525.543.867.13.342.195.731.195 1.167 0 .2-.022.334-.066.402-.044.068-.124.102-.24.102h-3.93zm10.824-3.162L73.268 17h-1.164l-2.46-6.12h1.062a.4.4 0 01.249.075c.066.05.109.109.129.177l1.356 3.564c.056.168.106.334.15.498.044.164.082.33.114.498a5.75 5.75 0 01.117-.495c.046-.162.097-.329.153-.501l1.38-3.564a.366.366 0 01.132-.18.379.379 0 01.234-.072h1.008zm2.226 0V17h-1.29v-6.12h1.29zm.216-1.848a.807.807 0 01-.069.33.868.868 0 01-.189.273.92.92 0 01-.279.186.842.842 0 01-.666 0 .866.866 0 01-.267-.186.921.921 0 01-.183-.273.807.807 0 01-.069-.33c0-.12.023-.232.069-.336a.921.921 0 01.183-.273.866.866 0 01.267-.186.842.842 0 01.666 0 .92.92 0 01.279.186c.08.078.143.169.189.273a.821.821 0 01.069.336zm5.424 4.218c0-.216-.031-.417-.093-.603a1.412 1.412 0 00-.273-.486 1.245 1.245 0 00-.447-.324 1.52 1.52 0 00-.615-.117c-.468 0-.836.134-1.104.402-.268.268-.438.644-.51 1.128h3.042zm-3.078.792c.016.348.07.649.162.903s.215.465.369.633c.154.168.338.293.552.375.214.082.453.123.717.123.252 0 .47-.029.654-.087a3.07 3.07 0 00.48-.192c.136-.07.252-.134.348-.192a.52.52 0 01.264-.087c.104 0 .184.04.24.12l.366.474c-.152.18-.324.332-.516.456a3.006 3.006 0 01-.612.303 3.457 3.457 0 01-.666.168c-.228.034-.45.051-.666.051a3.2 3.2 0 01-1.179-.213 2.622 2.622 0 01-.942-.627 2.895 2.895 0 01-.624-1.026c-.15-.408-.225-.878-.225-1.41 0-.424.067-.82.201-1.188s.326-.688.576-.96c.25-.272.554-.487.912-.645a2.98 2.98 0 011.215-.237c.376 0 .724.061 1.044.183.32.122.596.301.828.537.232.236.413.525.543.867.13.342.195.731.195 1.167 0 .2-.022.334-.066.402-.044.068-.124.102-.24.102h-3.93zM94.55 10.88L92.588 17h-1.026c-.12 0-.204-.078-.252-.234l-1.218-3.81a6.475 6.475 0 01-.156-.642 7.668 7.668 0 01-.162.648l-1.236 3.804c-.044.156-.138.234-.282.234h-.978l-1.962-6.12h1.02a.4.4 0 01.249.075c.066.05.109.109.129.177l1.02 3.564a10.438 10.438 0 01.186.936c.04-.152.082-.305.126-.459l.138-.477 1.146-3.582a.323.323 0 01.123-.177.367.367 0 01.225-.069h.564a.39.39 0 01.234.069.318.318 0 01.126.177l1.116 3.582c.048.164.093.324.135.48.042.156.081.312.117.468.028-.152.058-.306.09-.462.032-.156.07-.318.114-.486l1.038-3.564a.366.366 0 01.132-.18.379.379 0 01.234-.072h.972zm4.59 1.11a.32.32 0 01-.108.12.287.287 0 01-.15.036.482.482 0 01-.222-.063 9.217 9.217 0 00-.282-.141 2.433 2.433 0 00-.381-.141 1.865 1.865 0 00-.513-.063c-.16 0-.305.019-.435.057a.979.979 0 00-.33.162.733.733 0 00-.207.246.657.657 0 00-.072.303c0 .144.044.264.132.36.088.096.204.179.348.249s.308.133.492.189c.184.056.372.116.564.18.192.064.38.138.564.222.184.084.348.187.492.309.144.122.26.27.348.444.088.174.132.385.132.633 0 .288-.052.554-.156.798a1.792 1.792 0 01-.456.636c-.2.18-.449.32-.747.42-.298.1-.639.15-1.023.15-.212 0-.417-.019-.615-.057a3.537 3.537 0 01-.564-.156 3.006 3.006 0 01-.498-.237 2.622 2.622 0 01-.411-.3l.3-.492a.416.416 0 01.135-.141.37.37 0 01.201-.051c.084 0 .167.027.249.081.082.054.178.113.288.177.11.064.243.123.399.177.156.054.35.081.582.081.192 0 .358-.023.498-.069a.998.998 0 00.348-.189.76.76 0 00.27-.6.56.56 0 00-.132-.384 1.12 1.12 0 00-.351-.258 3.238 3.238 0 00-.498-.192 20.304 20.304 0 01-.567-.18 5.943 5.943 0 01-.567-.222 1.95 1.95 0 01-.498-.321 1.465 1.465 0 01-.351-.474 1.584 1.584 0 01-.132-.681 1.692 1.692 0 01.579-1.278 2.1 2.1 0 01.702-.399c.278-.098.599-.147.963-.147.412 0 .786.066 1.122.198.336.132.618.312.846.54l-.288.468z"/></g></svg>