<svg width="1340" height="250" fill="none" xmlns="http://www.w3.org/2000/svg"><mask id="a" maskUnits="userSpaceOnUse" x="0" y="0" width="1340" height="250"><path d="M1340 0H0v250h1340V0z" fill="#C4C4C4"/></mask><g opacity=".7" stroke-width="2.122" stroke-linecap="round" stroke-dasharray="0.53 10" mask="url(#a)"><path opacity=".7" d="M1344 49c-243.35 16.994-306.11 128.044-590 146-241 15.244-274.162-43.372-412-37-84.796 3.921-148.216 41.882-248 92.488" stroke="url(#paint0_linear)"/><path opacity=".7" d="M1360.95 2.401C1117.61 19.395 1039.89 195.043 756 213c-205.652 13.008-352.211-42-542-42-81.487 0-148.443 35.769-211 80.566" stroke="url(#paint1_linear)"/></g><defs><linearGradient id="paint0_linear" x1="1340" y1="48" x2="-130" y2="48" gradientUnits="userSpaceOnUse"><stop stop-color="#624DE3"/><stop offset=".503" stop-color="#7965EF"/><stop offset="1" stop-color="#171347"/></linearGradient><linearGradient id="paint1_linear" x1="1360.95" y1="75.31" x2="-109.048" y2="75.31" gradientUnits="userSpaceOnUse"><stop stop-color="#624DE3"/><stop offset=".503" stop-color="#7965EF"/><stop offset="1" stop-color="#171347"/></linearGradient></defs></svg>