<svg height="258" width="258" xmlns="http://www.w3.org/2000/svg"><path d="M0 45h3v3H0zm0 90h3v3H0zm0 90h3v3H0zM90 45h3v3h-3zm0 90h3v3h-3zm0 90h3v3h-3zm90-180h3v3h-3zm0 90h3v3h-3zm0 90h3v3h-3zM0 60h3v3H0zm0 90h3v3H0zm0 90h3v3H0zM90 60h3v3h-3zm0 90h3v3h-3zm0 90h3v3h-3zm90-180h3v3h-3zm0 90h3v3h-3zm0 90h3v3h-3zM0 75h3v3H0zm0 90h3v3H0zm0 90h3v3H0zM90 75h3v3h-3zm0 90h3v3h-3zm0 90h3v3h-3zm90-180h3v3h-3zm0 90h3v3h-3zm0 90h3v3h-3zM0 15h3v3H0zm0 90h3v3H0zm0 90h3v3H0zM90 15h3v3h-3zm0 90h3v3h-3zm0 90h3v3h-3zm90-180h3v3h-3zm0 90h3v3h-3zm0 90h3v3h-3zM30 45h3v3h-3zm0 90h3v3h-3zm0 90h3v3h-3zm90-180h3v3h-3zm0 90h3v3h-3zm0 90h3v3h-3zm90-180h3v3h-3zm0 90h3v3h-3zm0 90h3v3h-3zM30 60h3v3h-3zm0 90h3v3h-3zm0 90h3v3h-3zm90-180h3v3h-3zm0 90h3v3h-3zm0 90h3v3h-3zm90-180h3v3h-3zm0 90h3v3h-3zm0 90h3v3h-3zM30 75h3v3h-3zm0 90h3v3h-3zm0 90h3v3h-3zm90-180h3v3h-3zm0 90h3v3h-3zm0 90h3v3h-3zm90-180h3v3h-3zm0 90h3v3h-3zm0 90h3v3h-3zM60 45h3v3h-3zm0 90h3v3h-3zm0 90h3v3h-3zm90-180h3v3h-3zm0 90h3v3h-3zm0 90h3v3h-3zm90-180h3v3h-3zm0 90h3v3h-3zm0 90h3v3h-3zM60 60h3v3h-3zm0 90h3v3h-3zm0 90h3v3h-3zm90-180h3v3h-3zm0 90h3v3h-3zm0 90h3v3h-3zm90-180h3v3h-3zm0 90h3v3h-3zm0 90h3v3h-3zM60 75h3v3h-3zm0 90h3v3h-3zm0 90h3v3h-3zm90-180h3v3h-3zm0 90h3v3h-3zm0 90h3v3h-3zm90-180h3v3h-3zm0 90h3v3h-3zm0 90h3v3h-3zM30 15h3v3h-3zm0 90h3v3h-3zm0 90h3v3h-3zm90-180h3v3h-3zm0 90h3v3h-3zm0 90h3v3h-3zm90-180h3v3h-3zm0 90h3v3h-3zm0 90h3v3h-3zM60 15h3v3h-3zm0 90h3v3h-3zm0 90h3v3h-3zm90-180h3v3h-3zm0 90h3v3h-3zm0 90h3v3h-3zm90-180h3v3h-3zm0 90h3v3h-3zm0 90h3v3h-3zM0 30h3v3H0zm0 90h3v3H0zm0 90h3v3H0zM90 30h3v3h-3zm0 90h3v3h-3zm0 90h3v3h-3zm90-180h3v3h-3zm0 90h3v3h-3zm0 90h3v3h-3zM0 0h3v3H0zm0 90h3v3H0zm0 90h3v3H0zM90 0h3v3h-3zm0 90h3v3h-3zm0 90h3v3h-3zM180 0h3v3h-3zm0 90h3v3h-3zm0 90h3v3h-3zM30 30h3v3h-3zm0 90h3v3h-3zm0 90h3v3h-3zm90-180h3v3h-3zm0 90h3v3h-3zm0 90h3v3h-3zm90-180h3v3h-3zm0 90h3v3h-3zm0 90h3v3h-3zM60 30h3v3h-3zm0 90h3v3h-3zm0 90h3v3h-3zm90-180h3v3h-3zm0 90h3v3h-3zm0 90h3v3h-3zm90-180h3v3h-3zm0 90h3v3h-3zm0 90h3v3h-3zM30 0h3v3h-3zm0 90h3v3h-3zm0 90h3v3h-3zM120 0h3v3h-3zm0 90h3v3h-3zm0 90h3v3h-3zM210 0h3v3h-3zm0 90h3v3h-3zm0 90h3v3h-3zM60 0h3v3h-3zm0 90h3v3h-3zm0 90h3v3h-3zM150 0h3v3h-3zm0 90h3v3h-3zm0 90h3v3h-3zM240 0h3v3h-3zm0 90h3v3h-3zm0 90h3v3h-3zM15 45h3v3h-3zm0 90h3v3h-3zm0 90h3v3h-3zm90-180h3v3h-3zm0 90h3v3h-3zm0 90h3v3h-3zm90-180h3v3h-3zm0 90h3v3h-3zm0 90h3v3h-3zM15 60h3v3h-3zm0 90h3v3h-3zm0 90h3v3h-3zm90-180h3v3h-3zm0 90h3v3h-3zm0 90h3v3h-3zm90-180h3v3h-3zm0 90h3v3h-3zm0 90h3v3h-3zM15 75h3v3h-3zm0 90h3v3h-3zm0 90h3v3h-3zm90-180h3v3h-3zm0 90h3v3h-3zm0 90h3v3h-3zm90-180h3v3h-3zm0 90h3v3h-3zm0 90h3v3h-3zM15 15h3v3h-3zm0 90h3v3h-3zm0 90h3v3h-3zm90-180h3v3h-3zm0 90h3v3h-3zm0 90h3v3h-3zm90-180h3v3h-3zm0 90h3v3h-3zm0 90h3v3h-3zM45 45h3v3h-3zm0 90h3v3h-3zm0 90h3v3h-3zm90-180h3v3h-3zm0 90h3v3h-3zm0 90h3v3h-3zm90-180h3v3h-3zm0 90h3v3h-3zm0 90h3v3h-3zM45 60h3v3h-3zm0 90h3v3h-3zm0 90h3v3h-3zm90-180h3v3h-3zm0 90h3v3h-3zm0 90h3v3h-3zm90-180h3v3h-3zm0 90h3v3h-3zm0 90h3v3h-3zM45 75h3v3h-3zm0 90h3v3h-3zm0 90h3v3h-3zm90-180h3v3h-3zm0 90h3v3h-3zm0 90h3v3h-3zm90-180h3v3h-3zm0 90h3v3h-3zm0 90h3v3h-3zM75 45h3v3h-3zm0 90h3v3h-3zm0 90h3v3h-3zm90-180h3v3h-3zm0 90h3v3h-3zm0 90h3v3h-3zm90-180h3v3h-3zm0 90h3v3h-3zm0 90h3v3h-3zM75 60h3v3h-3zm0 90h3v3h-3zm0 90h3v3h-3zm90-180h3v3h-3zm0 90h3v3h-3zm0 90h3v3h-3zm90-180h3v3h-3zm0 90h3v3h-3zm0 90h3v3h-3zM75 75h3v3h-3zm0 90h3v3h-3zm0 90h3v3h-3zm90-180h3v3h-3zm0 90h3v3h-3zm0 90h3v3h-3zm90-180h3v3h-3zm0 90h3v3h-3zm0 90h3v3h-3zM45 15h3v3h-3zm0 90h3v3h-3zm0 90h3v3h-3zm90-180h3v3h-3zm0 90h3v3h-3zm0 90h3v3h-3zm90-180h3v3h-3zm0 90h3v3h-3zm0 90h3v3h-3zM75 15h3v3h-3zm0 90h3v3h-3zm0 90h3v3h-3zm90-180h3v3h-3zm0 90h3v3h-3zm0 90h3v3h-3zm90-180h3v3h-3zm0 90h3v3h-3zm0 90h3v3h-3zM15 30h3v3h-3zm0 90h3v3h-3zm0 90h3v3h-3zm90-180h3v3h-3zm0 90h3v3h-3zm0 90h3v3h-3zm90-180h3v3h-3zm0 90h3v3h-3zm0 90h3v3h-3zM15 0h3v3h-3zm0 90h3v3h-3zm0 90h3v3h-3zM105 0h3v3h-3zm0 90h3v3h-3zm0 90h3v3h-3zM195 0h3v3h-3zm0 90h3v3h-3zm0 90h3v3h-3zM45 30h3v3h-3zm0 90h3v3h-3zm0 90h3v3h-3zm90-180h3v3h-3zm0 90h3v3h-3zm0 90h3v3h-3zm90-180h3v3h-3zm0 90h3v3h-3zm0 90h3v3h-3zM75 30h3v3h-3zm0 90h3v3h-3zm0 90h3v3h-3zm90-180h3v3h-3zm0 90h3v3h-3zm0 90h3v3h-3zm90-180h3v3h-3zm0 90h3v3h-3zm0 90h3v3h-3zM45 0h3v3h-3zm0 90h3v3h-3zm0 90h3v3h-3zM135 0h3v3h-3zm0 90h3v3h-3zm0 90h3v3h-3zM225 0h3v3h-3zm0 90h3v3h-3zm0 90h3v3h-3zM75 0h3v3h-3zm0 90h3v3h-3zm0 90h3v3h-3zM165 0h3v3h-3zm0 90h3v3h-3zm0 90h3v3h-3zM255 0h3v3h-3zm0 90h3v3h-3zm0 90h3v3h-3z" fill="#dadfe7"/></svg>