<svg width="197" height="161" fill="none" xmlns="http://www.w3.org/2000/svg"><path d="M116.709 17.808c-6.759 5.76-11.201 13.7-11.974 22.651-.698 8.039.861 15.76 2.359 23.588.702 3.662 1.356 7.347 1.654 11.078.074.943.13 1.892.15 2.837.009.333-.01 1.753.004 1.73a30.7 30.7 0 01-.722 5.196c-.09.397-.2.784-.297 1.178-.016.062-.028.123-.043.173-.018.029-.033.062-.057.105-.36.697-.581 1.517-.911 2.237a29.977 29.977 0 01-1.23 2.42c-.098.176-.207.35-.312.523-.01-.013-.596.878-.674.985a33.21 33.21 0 01-3.127 3.7c.025-.026-.517.496-.754.733-.161.143-.339.297-.394.346a34.728 34.728 0 01-4.69 3.327 64.85 64.85 0 01-.867.489 9.47 9.47 0 00-.274.122c-1.67.736-3.328 1.334-5.055 1.896-.11.034-.195.065-.27.087a24.9 24.9 0 01-1.259.239 27.778 27.778 0 01-4.872.389c-.07-.008-.145-.014-.233-.027-.598-.062-1.195-.12-1.79-.206-6.763-.985-13.141-3.86-20.001-4.282-4.82-.297-9.448.429-13.645 3.027-5.127 3.172-7.926 8.568-9.455 14.247-1.414 5.273-1.532 10.886-1.98 16.296l-1.48 17.705c-.304 3.658 1.672 7.17 5.466 7.807 3.335.557 7.45-1.927 7.76-5.604.816-9.769 1.2-19.7 2.56-29.414.144-1.033.317-2.06.537-3.082.093-.421.189-.848.305-1.265.05-.153.19-.63.206-.675.31-.82.656-1.651 1.086-2.419.072-.093.357-.522.413-.582.008-.008 1.038-1.061.926-1.015.417-.297 1.354-.851 1.119-.777.494-.208 1-.381 1.508-.566.296-.046.59-.097.891-.128.355-.039.708-.067 1.057-.088.176-.008 1.042.025 1.07.009 6.328.589 12.27 3.016 18.511 4.085 7.39 1.267 15.221.076 21.968-3.31 7.197-3.606 13.049-8.914 17.272-15.843 4.104-6.734 5.442-14.563 5.055-22.347-.363-7.271-2.229-14.332-3.397-21.484-.553-3.374-.901-6.756-.909-10.183.014.314.081-1.403.108-1.665.085-.81.198-1.619.348-2.419.145-.798.347-1.578.546-2.367a.527.527 0 01.024-.07c.237-.625.47-1.242.738-1.855.184-.415.382-.823.593-1.225.042-.083.357-.646.522-.958.148-.222.4-.605.451-.68.331-.456.675-.907 1.029-1.344.691-.834 1.426-1.651 2.224-2.39.083-.064.193-.143.328-.248.545-.406 1.067-.843 1.624-1.23 1.965-1.382 2.21-1.538 4.441-2.418 1.05-.416 2.13-.775 3.223-1.055-.296.074-.998.156.306-.05.554-.09 1.111-.186 1.668-.249 8.358-.985 15.879 2.465 21.98 8.92 2.423 2.56 7.386 1.897 9.466-.81 2.432-3.167 1.874-6.831-.716-9.576-12.835-13.555-35.271-16.872-50.108-4.22z" fill="#770FFB"/></svg>