<svg width="143" height="152" fill="none" xmlns="http://www.w3.org/2000/svg"><path d="M110.457 13.308c-14.88-10.79-34.12-15.58-52.42-12.28-17.57 3.17-32.64 14.73-43.03 28.92-8.95 12.22-13.16 26.04-13.61 40.02-5.83 28.95 6.78 61.01 34.2 74.27 15.86 7.67 34.72 9.49 51.8 4.18 20.17-6.27 35.4-21.8 45.4-40.07 9.12-16.67 12.63-35.72 7.25-53.99-4.94-16.76-15.57-30.88-29.59-41.05zm-5.74 29.28c.52.57 1.02 1.15 1.52 1.74.1.12.42.51.69.84.27.36.65.87.75 1.02a64.264 64.264 0 013.93 6.36c.81 1.52 1.54 3.07 2.25 4.63.02.04.03.07.05.11.26.71.51 1.42.75 2.14.93 2.83 1.61 5.73 2.09 8.68-.07-.23.22 2.47.25 3.12.06 1.52.05 3.04-.03 4.57-.03.52-.52 4.1-.28 2.96-.41 2.17-.9 4.31-1.54 6.43-3.88 12.92-13.92 27.64-25.6 34.58-1.39.83-2.84 1.52-4.26 2.28-.23.12-.41.22-.57.3-.63.25-1.28.49-1.92.71-1.52.53-3.06.99-4.62 1.38-.78.2-1.56.38-2.35.54-.09.02-2.17.38-2.29.44-2.93.35-5.91.43-8.84.31-.8-.03-1.6-.1-2.41-.14-.15-.01-.56-.06-.87-.09-1.61-.24-3.2-.55-4.78-.92-1.76-.42-3.45-.99-5.18-1.5l-.59-.17c-.27-.11-.54-.23-.81-.35-.4-.56-.85-1.11-1.37-1.62-2.42-2.37-4.67-4.86-6.85-7.45-.21-.25-.38-.45-.51-.6-.43-.57-.85-1.15-1.25-1.73a85.055 85.055 0 01-3.45-5.33c-1.74-2.91-3.22-5.94-4.67-9.01-.08-.16-.4-.92-.5-1.13-.21-.55-.41-1.11-.61-1.67a77.4 77.4 0 01-1.7-5.42c-1.78-6.51-2.36-9.93-2.24-16.03a53.65 53.65 0 011.73-5.39c.06-.12.13-.25.2-.4.56-1.1 1.1-2.2 1.69-3.29 1.91-3.51 2.09-7.6.75-11.1 1.18-2.38 2.45-4.7 3.91-6.92.28-.43 2.3-3.11 1.91-2.69 1.12-1.35 2.28-2.68 3.5-3.95 1.11-1.15 2.28-2.25 3.47-3.31.54-.48 2.95-2.29 2.52-2.03 2.58-1.76 5.22-3.38 8.04-4.73.15-.07.73-.33 1.16-.52.43-.16 1.04-.39 1.19-.44 1.48-.51 2.98-.96 4.5-1.33.76-.19 1.53-.35 2.3-.5.15-.03.79-.12 1.25-.19.47-.04 1.17-.1 1.34-.11.99-.06 1.98-.1 2.97-.09 3.81.01 5.58.25 9.55 1.23 1.86.46 3.7 1 5.51 1.62.42.15.85.3 1.27.45-.06.01 1.91.88 2.06.95a62.05 62.05 0 017.99 4.61c.53.36 1.04.73 1.56 1.11.1.08.21.18.34.29 1.32 1.13 2.63 2.25 3.88 3.46a52.64 52.64 0 013.22 3.29z" fill="#1BBAFF"/></svg>