<svg width="163" height="159" fill="none" xmlns="http://www.w3.org/2000/svg"><path d="M107.918 149.994c17.207-18.872 36.165-42.401 31.452-69.668-4.805-27.776-31.755-42.736-56.624-50.001-12.94-3.78-26.907-4.994-40.285-2.429-5.772 1.107-10.464 5.63-9.965 11.876.433 5.428 5.893 10.928 11.7 9.819 4.69-.898 10.643-1.455 14.618-1.315 1.218.037 4.613.354 6.61.624 2.47.337 4.927.784 7.362 1.334 4.895 1.1 8.02 2.107 13.271 4.257a111.567 111.567 0 0114.268 7.062c.342.199.513.298.576.329.389.248.773.515 1.162.776 1.19.81 2.364 1.651 3.5 2.538 1.748 1.356 4.361 3.66 5.353 4.691 3.115 3.233 5.056 6.996 6.531 11.552.163.49.233.67.267.722.001.078.014.287.078.75.17 1.249.326 2.486.4 3.742.064 1.083.087 2.163.067 3.241.001.012-.005.019.002.024a47.546 47.546 0 01-.282 2.617 51.205 51.205 0 01-1.304 6.47c-.031.129-.269.913-.394 1.339-.112.305-.246.701-.246.701-.466 1.201-.914 2.407-1.43 3.589-5.179 11.866-14.266 21.615-23.249 31.463-3.868 4.241-3.276 11.892 1.228 15.341 4.828 3.696 11.186 3.104 15.334-1.444z" fill="#FB0F5A"/></svg>