<svg width="125" height="198" fill="none" xmlns="http://www.w3.org/2000/svg"><path d="M115.133 131.194c-32.8-6.42-65.73-16.18-95.97-28.84-6.36-2.66-13.79-1.6-17.55 4.96-3.17 5.52-1.7 14.8 4.7 17.48 32.92 13.78 67 24.43 102.12 31.3 6.78 1.33 13.87-2.29 15.75-9.28 1.73-6.45-2.23-14.29-9.05-15.62z" fill="#FFCE22"/><path d="M69.021 1.63A12.811 12.811 0 0062.691 0c-1.09.15-2.17.29-3.26.44-2.24.61-4.19 1.74-5.85 3.39l-1.74 1.74a9.88 9.88 0 00-2.75 4.3c-.77 1.5-1.13 3.1-1.08 4.81-.08 1.71.26 3.31 1.01 4.79.5 1.65 1.4 3.07 2.69 4.26.91.69 1.82 1.38 2.72 2.07a12.81 12.81 0 006.33 1.63c1.09-.15 2.17-.29 3.26-.44 2.24-.61 4.19-1.74 5.85-3.39l1.74-1.74a9.88 9.88 0 002.75-4.3c.77-1.5 1.13-3.1 1.08-4.81.08-1.71-.26-3.31-1.01-4.79-.5-1.65-1.4-3.07-2.69-4.26-.91-.69-1.82-1.38-2.72-2.07z" fill="#FB0F5A"/><path d="M92.73 171.021a9.476 9.476 0 00-4.79-1.01c-1.71-.05-3.31.31-4.81 1.08a9.88 9.88 0 00-4.3 2.75c-.7.92-1.41 1.84-2.11 2.75a13.07 13.07 0 00-1.72 6.36l.39 3.26c.58 2.23 1.68 4.17 3.3 5.8l1.72 1.72a9.518 9.518 0 004.26 2.69c1.49.75 3.08 1.09 4.79 1.01 1.71.05 3.31-.31 4.81-1.08a9.88 9.88 0 004.3-2.75c.7-.92 1.41-1.84 2.11-2.75a13.07 13.07 0 001.72-6.36l-.39-3.26c-.58-2.23-1.68-4.17-3.3-5.8l-1.72-1.72c-1.2-1.3-2.62-2.19-4.26-2.69z" fill="#770FFB"/><path d="M82.773 69.74c-4.79 4.79-5.22 13.52-.13 18.16 5.11 4.66 13.03 5 18.16-.13 4.79-4.79 5.22-13.52.13-18.16-5.1-4.67-13.03-5-18.16.13z" fill="#1BBAFF"/></svg>