<svg width="205" height="411" fill="none" xmlns="http://www.w3.org/2000/svg"><path d="M79.412 127.483c23.619 9.715 52.213 19.482 76.223 5.728 24.458-14.016 29.299-44.457 27.62-70.311-.873-13.453-4.51-26.993-11.496-38.686-3.014-5.046-8.869-7.907-14.569-5.303-4.952 2.264-8.253 9.275-5.224 14.354 2.448 4.1 5.007 9.503 6.235 13.286.382 1.157 1.245 4.456 1.674 6.424a86.585 86.585 0 011.265 7.375c.641 4.976.763 8.257.538 13.927a111.485 111.485 0 01-1.756 15.823c-.07.389-.104.584-.112.653-.1.45-.22.903-.331 1.358a66.934 66.934 0 01-1.189 4.156c-.676 2.107-1.947 5.35-2.577 6.635-1.973 4.033-4.845 7.144-8.621 10.088-.405.321-.551.449-.587.498a6.98 6.98 0 00-.679.33c-1.115.586-2.224 1.156-3.379 1.655-.996.431-2.003.822-3.023 1.172-.011.005-.019.002-.022.01a47.12 47.12 0 01-2.555.63 51.097 51.097 0 01-6.526.987c-.132.015-.95.06-1.393.088-.325-.001-.743.009-.743.009-1.288-.027-2.574-.035-3.861-.116-12.923-.809-25.192-6.013-37.518-11.086-5.308-2.184-12.296.988-13.995 6.401-1.823 5.801.908 11.573 6.601 13.915z" fill="#FB0F5A"/><path d="M116.709 267.807c-6.759 5.761-11.201 13.7-11.974 22.652-.698 8.038.861 15.76 2.359 23.588.702 3.662 1.356 7.347 1.654 11.078.074.942.13 1.892.15 2.837.009.333-.01 1.752.004 1.73a30.686 30.686 0 01-.722 5.195c-.09.397-.2.785-.297 1.179-.016.062-.028.122-.043.173-.018.028-.033.062-.057.104-.36.698-.581 1.518-.911 2.237a30.04 30.04 0 01-1.23 2.421c-.098.176-.207.35-.312.523-.01-.013-.596.878-.674.985-.948 1.309-2 2.544-3.127 3.699.025-.026-.517.496-.754.734-.161.143-.339.297-.394.345a34.482 34.482 0 01-4.69 3.327c-.287.166-.574.327-.867.489-.077.034-.164.071-.274.122-1.67.737-3.328 1.335-5.055 1.897-.11.034-.195.065-.27.087-.42.09-.837.17-1.259.239a27.778 27.778 0 01-4.872.389c-.07-.008-.145-.014-.233-.027-.598-.063-1.195-.12-1.79-.206-6.763-.986-13.141-3.859-20.001-4.283-4.82-.296-9.448.43-13.645 3.028-5.127 3.172-7.926 8.567-9.455 14.246-1.414 5.273-1.532 10.887-1.98 16.296l-1.48 17.706c-.304 3.658 1.672 7.17 5.466 7.807 3.335.557 7.45-1.927 7.76-5.604.816-9.769 1.2-19.7 2.56-29.415.144-1.033.317-2.06.537-3.081.093-.421.189-.848.305-1.266.05-.153.19-.629.206-.675.31-.819.656-1.651 1.086-2.418.072-.093.357-.522.413-.582.008-.008 1.038-1.061.926-1.015.417-.297 1.354-.852 1.119-.777.494-.208 1-.381 1.508-.566.296-.046.59-.097.891-.128.355-.039.708-.067 1.057-.088.176-.008 1.042.024 1.07.009 6.328.588 12.27 3.016 18.511 4.085 7.39 1.266 15.221.075 21.968-3.311 7.197-3.605 13.049-8.913 17.272-15.842 4.104-6.734 5.442-14.563 5.055-22.347-.363-7.271-2.229-14.332-3.397-21.484-.553-3.375-.901-6.756-.909-10.183.014.314.081-1.403.108-1.665.085-.81.198-1.619.348-2.419.145-.798.347-1.578.546-2.368a.52.52 0 01.024-.07c.237-.624.47-1.242.738-1.855.184-.414.382-.822.593-1.224.042-.083.357-.646.522-.958.148-.222.4-.605.451-.68.331-.457.675-.907 1.029-1.344.691-.834 1.426-1.651 2.224-2.39.083-.064.193-.143.328-.248.545-.406 1.067-.843 1.624-1.23 1.965-1.383 2.21-1.539 4.441-2.418a26.91 26.91 0 013.223-1.056c-.296.075-.998.156.306-.049.554-.09 1.111-.186 1.668-.249 8.358-.985 15.879 2.465 21.98 8.92 2.423 2.56 7.386 1.897 9.466-.811 2.432-3.166 1.874-6.83-.716-9.575-12.835-13.555-35.271-16.872-50.108-4.22z" fill="#FFCE22"/><path d="M37.773 240.74c-4.79 4.79-5.22 13.52-.13 18.16 5.11 4.66 13.03 5 18.16-.13 4.79-4.79 5.22-13.52.13-18.16-5.1-4.67-13.03-5-18.16.13z" fill="#1BBAFF"/></svg>