<svg width="210" height="161" fill="none" xmlns="http://www.w3.org/2000/svg"><path d="M116.709 17.807c-6.759 5.762-11.201 13.7-11.974 22.652-.698 8.038.861 15.76 2.359 23.588.702 3.662 1.356 7.347 1.654 11.078.074.942.13 1.892.15 2.837.009.333-.01 1.752.004 1.73a30.699 30.699 0 01-.722 5.195c-.09.397-.2.785-.297 1.179-.016.062-.028.122-.043.173-.018.028-.033.062-.057.104-.36.697-.581 1.518-.911 2.237a29.944 29.944 0 01-1.23 2.42c-.098.177-.207.351-.312.524-.01-.014-.596.878-.674.985a33.21 33.21 0 01-3.127 3.699c.025-.026-.517.496-.754.734-.161.143-.339.297-.394.345a34.76 34.76 0 01-4.69 3.327c-.287.166-.574.327-.867.489-.077.034-.164.071-.274.122-1.67.737-3.328 1.335-5.055 1.897-.11.034-.195.065-.27.087-.42.09-.837.17-1.259.239a27.778 27.778 0 01-4.872.389c-.07-.008-.145-.014-.233-.027-.598-.063-1.195-.12-1.79-.206-6.763-.986-13.141-3.86-20.001-4.282-4.82-.297-9.448.429-13.645 3.027-5.127 3.172-7.926 8.567-9.455 14.246-1.414 5.273-1.532 10.887-1.98 16.296l-1.48 17.706c-.304 3.658 1.672 7.17 5.466 7.807 3.335.557 7.45-1.927 7.76-5.604.816-9.769 1.2-19.7 2.56-29.415.144-1.033.317-2.06.537-3.081.093-.421.189-.848.305-1.266.05-.153.19-.629.206-.675.31-.819.656-1.651 1.086-2.418.072-.093.357-.522.413-.582.008-.008 1.038-1.061.926-1.015.417-.297 1.354-.852 1.119-.777.494-.208 1-.381 1.508-.566.296-.046.59-.097.891-.128.355-.039.708-.067 1.057-.088.176-.008 1.042.024 1.07.009 6.328.588 12.27 3.016 18.511 4.085 7.39 1.266 15.221.075 21.968-3.311 7.197-3.605 13.049-8.913 17.272-15.842 4.104-6.734 5.442-14.563 5.055-22.347-.363-7.271-2.229-14.332-3.397-21.484-.553-3.375-.901-6.756-.909-10.183.014.314.081-1.403.108-1.665.085-.81.198-1.62.348-2.42.145-.797.347-1.577.546-2.367a.527.527 0 01.024-.07c.237-.624.47-1.242.738-1.855.184-.414.382-.822.593-1.224.042-.083.357-.646.522-.958.148-.222.4-.605.451-.68.331-.457.675-.907 1.029-1.344.691-.834 1.426-1.651 2.224-2.39.083-.064.193-.143.328-.248.545-.406 1.067-.843 1.624-1.23 1.965-1.383 2.21-1.539 4.441-2.418a26.91 26.91 0 013.223-1.056c-.296.075-.998.156.306-.05.554-.089 1.111-.185 1.668-.248 8.358-.985 15.879 2.465 21.98 8.92 2.423 2.56 7.386 1.897 9.466-.81 2.432-3.167 1.874-6.831-.716-9.576-12.835-13.555-35.271-16.872-50.108-4.22z" fill="#770FFB"/><path d="M187.773 112.74c-4.79 4.79-5.22 13.52-.13 18.16 5.11 4.66 13.03 5 18.16-.13 4.79-4.79 5.22-13.52.13-18.16-5.1-4.67-13.03-5-18.16.13z" fill="#FB0F5A"/></svg>